{"glyphs":{"0":{"ha":590,"x_min":0,"x_max":521,"o":"m 0 799 l 35 799 l 35 833 l 69 833 l 69 868 l 451 868 l 451 833 l 486 833 l 486 799 l 521 799 l 521 69 l 486 69 l 486 35 l 451 35 l 451 0 l 69 0 l 69 35 l 35 35 l 35 69 l 0 69 l 0 799 m 451 833 l 69 833 l 69 799 l 35 799 l 35 69 l 69 69 l 69 35 l 451 35 l 451 69 l 486 69 l 486 799 l 451 799 l 451 833 m 69 764 l 104 764 l 104 799 l 417 799 l 417 764 l 451 764 l 451 104 l 417 104 l 417 69 l 104 69 l 104 104 l 69 104 l 69 764 m 104 104 l 417 104 l 417 764 l 104 764 l 104 104 m 139 729 l 382 729 l 382 139 l 139 139 l 139 729 m 174 174 l 347 174 l 347 694 l 174 694 l 174 174 z "},"1":{"ha":590,"x_min":0,"x_max":521,"o":"m 0 833 l 35 833 l 35 868 l 278 868 l 278 833 l 313 833 l 313 799 l 347 799 l 347 174 l 486 174 l 486 139 l 521 139 l 521 35 l 486 35 l 486 0 l 35 0 l 35 35 l 0 35 l 0 139 l 35 139 l 35 174 l 174 174 l 174 694 l 35 694 l 35 729 l 0 729 l 0 833 m 278 833 l 35 833 l 35 729 l 208 729 l 208 139 l 35 139 l 35 35 l 486 35 l 486 139 l 313 139 l 313 799 l 278 799 l 278 833 m 69 799 l 243 799 l 243 764 l 278 764 l 278 104 l 451 104 l 451 69 l 278 69 l 278 104 l 243 104 l 243 69 l 69 69 l 69 104 l 243 104 l 243 764 l 69 764 l 69 799 z "},"2":{"ha":590,"x_min":0,"x_max":521,"o":"m 0 833 l 35 833 l 35 868 l 451 868 l 451 833 l 486 833 l 486 799 l 521 799 l 521 417 l 486 417 l 486 382 l 451 382 l 451 347 l 174 347 l 174 174 l 486 174 l 486 139 l 521 139 l 521 35 l 486 35 l 486 0 l 69 0 l 69 35 l 35 35 l 35 69 l 0 69 l 0 451 l 35 451 l 35 486 l 69 486 l 69 521 l 347 521 l 347 694 l 35 694 l 35 729 l 0 729 l 0 833 m 451 833 l 35 833 l 35 729 l 382 729 l 382 486 l 69 486 l 69 451 l 35 451 l 35 69 l 69 69 l 69 35 l 486 35 l 486 139 l 139 139 l 139 382 l 451 382 l 451 417 l 486 417 l 486 799 l 451 799 l 451 833 m 69 799 l 417 799 l 417 764 l 451 764 l 451 451 l 417 451 l 417 417 l 104 417 l 104 104 l 451 104 l 451 69 l 104 69 l 104 104 l 69 104 l 69 417 l 104 417 l 104 451 l 417 451 l 417 764 l 69 764 l 69 799 z "},"3":{"ha":590,"x_min":0,"x_max":521,"o":"m 0 833 l 35 833 l 35 868 l 451 868 l 451 833 l 486 833 l 486 799 l 521 799 l 521 69 l 486 69 l 486 35 l 451 35 l 451 0 l 35 0 l 35 35 l 0 35 l 0 139 l 35 139 l 35 174 l 347 174 l 347 347 l 69 347 l 69 382 l 35 382 l 35 486 l 69 486 l 69 521 l 347 521 l 347 694 l 35 694 l 35 729 l 0 729 l 0 833 m 451 833 l 35 833 l 35 729 l 382 729 l 382 486 l 69 486 l 69 382 l 382 382 l 382 139 l 35 139 l 35 35 l 451 35 l 451 69 l 486 69 l 486 799 l 451 799 l 451 833 m 69 799 l 417 799 l 417 764 l 451 764 l 451 451 l 417 451 l 417 417 l 451 417 l 451 104 l 417 104 l 417 69 l 69 69 l 69 104 l 417 104 l 417 417 l 104 417 l 104 451 l 417 451 l 417 764 l 69 764 l 69 799 z "},"4":{"ha":590,"x_min":0,"x_max":521,"o":"m 0 833 l 35 833 l 35 868 l 139 868 l 139 833 l 174 833 l 174 521 l 347 521 l 347 833 l 382 833 l 382 868 l 486 868 l 486 833 l 521 833 l 521 35 l 486 35 l 486 0 l 382 0 l 382 35 l 347 35 l 347 347 l 69 347 l 69 382 l 35 382 l 35 417 l 0 417 l 0 833 m 35 417 l 69 417 l 69 382 l 382 382 l 382 35 l 486 35 l 486 833 l 382 833 l 382 486 l 139 486 l 139 833 l 35 833 l 35 417 m 69 799 l 104 799 l 104 451 l 417 451 l 417 799 l 451 799 l 451 451 l 417 451 l 417 417 l 451 417 l 451 69 l 417 69 l 417 417 l 104 417 l 104 451 l 69 451 l 69 799 z "},"5":{"ha":590,"x_min":0,"x_max":521,"o":"m 0 799 l 35 799 l 35 833 l 69 833 l 69 868 l 486 868 l 486 833 l 521 833 l 521 729 l 486 729 l 486 694 l 174 694 l 174 521 l 451 521 l 451 486 l 486 486 l 486 451 l 521 451 l 521 69 l 486 69 l 486 35 l 451 35 l 451 0 l 35 0 l 35 35 l 0 35 l 0 139 l 35 139 l 35 174 l 347 174 l 347 347 l 69 347 l 69 382 l 35 382 l 35 417 l 0 417 l 0 799 m 139 729 l 486 729 l 486 833 l 69 833 l 69 799 l 35 799 l 35 417 l 69 417 l 69 382 l 382 382 l 382 139 l 35 139 l 35 35 l 451 35 l 451 69 l 486 69 l 486 451 l 451 451 l 451 486 l 139 486 l 139 729 m 69 764 l 104 764 l 104 799 l 451 799 l 451 764 l 104 764 l 104 451 l 417 451 l 417 417 l 451 417 l 451 104 l 417 104 l 417 69 l 69 69 l 69 104 l 417 104 l 417 417 l 104 417 l 104 451 l 69 451 l 69 764 z "},"6":{"ha":590,"x_min":0,"x_max":521,"o":"m 0 799 l 35 799 l 35 833 l 69 833 l 69 868 l 486 868 l 486 833 l 521 833 l 521 729 l 486 729 l 486 694 l 174 694 l 174 521 l 451 521 l 451 486 l 486 486 l 486 451 l 521 451 l 521 69 l 486 69 l 486 35 l 451 35 l 451 0 l 69 0 l 69 35 l 35 35 l 35 69 l 0 69 l 0 799 m 139 729 l 486 729 l 486 833 l 69 833 l 69 799 l 35 799 l 35 69 l 69 69 l 69 35 l 451 35 l 451 69 l 486 69 l 486 451 l 451 451 l 451 486 l 139 486 l 139 729 m 69 764 l 104 764 l 104 799 l 451 799 l 451 764 l 104 764 l 104 451 l 417 451 l 417 417 l 451 417 l 451 104 l 417 104 l 417 69 l 104 69 l 104 104 l 69 104 l 69 417 l 104 417 l 104 451 l 69 451 l 69 764 m 104 104 l 417 104 l 417 417 l 104 417 l 104 104 m 139 382 l 382 382 l 382 139 l 139 139 l 139 382 m 174 174 l 347 174 l 347 347 l 174 347 l 174 174 z "},"7":{"ha":590,"x_min":0,"x_max":521,"o":"m 0 799 l 35 799 l 35 833 l 69 833 l 69 868 l 451 868 l 451 833 l 486 833 l 486 799 l 521 799 l 521 35 l 486 35 l 486 0 l 382 0 l 382 35 l 347 35 l 347 694 l 174 694 l 174 417 l 139 417 l 139 382 l 35 382 l 35 417 l 0 417 l 0 799 m 451 833 l 69 833 l 69 799 l 35 799 l 35 417 l 139 417 l 139 729 l 382 729 l 382 35 l 486 35 l 486 799 l 451 799 l 451 833 m 417 764 l 104 764 l 104 451 l 69 451 l 69 764 l 104 764 l 104 799 l 417 799 l 417 764 l 451 764 l 451 69 l 417 69 l 417 764 z "},"8":{"ha":590,"x_min":0,"x_max":521,"o":"m 0 799 l 35 799 l 35 833 l 69 833 l 69 868 l 451 868 l 451 833 l 486 833 l 486 799 l 521 799 l 521 69 l 486 69 l 486 35 l 451 35 l 451 0 l 69 0 l 69 35 l 35 35 l 35 69 l 0 69 l 0 799 m 451 833 l 69 833 l 69 799 l 35 799 l 35 69 l 69 69 l 69 35 l 451 35 l 451 69 l 486 69 l 486 799 l 451 799 l 451 833 m 69 764 l 104 764 l 104 799 l 417 799 l 417 764 l 451 764 l 451 451 l 417 451 l 417 417 l 451 417 l 451 104 l 417 104 l 417 69 l 104 69 l 104 104 l 69 104 l 69 417 l 104 417 l 104 451 l 69 451 l 69 764 m 104 451 l 417 451 l 417 764 l 104 764 l 104 451 m 104 104 l 417 104 l 417 417 l 104 417 l 104 104 m 139 729 l 382 729 l 382 486 l 139 486 l 139 729 m 139 382 l 382 382 l 382 139 l 139 139 l 139 382 m 174 521 l 347 521 l 347 694 l 174 694 l 174 521 m 347 347 l 174 347 l 174 174 l 347 174 l 347 347 z "},"9":{"ha":590,"x_min":0,"x_max":521,"o":"m 0 799 l 35 799 l 35 833 l 69 833 l 69 868 l 451 868 l 451 833 l 486 833 l 486 799 l 521 799 l 521 69 l 486 69 l 486 35 l 451 35 l 451 0 l 35 0 l 35 35 l 0 35 l 0 139 l 35 139 l 35 174 l 347 174 l 347 347 l 69 347 l 69 382 l 35 382 l 35 417 l 0 417 l 0 799 m 451 833 l 69 833 l 69 799 l 35 799 l 35 417 l 69 417 l 69 382 l 382 382 l 382 139 l 35 139 l 35 35 l 451 35 l 451 69 l 486 69 l 486 799 l 451 799 l 451 833 m 69 764 l 104 764 l 104 799 l 417 799 l 417 764 l 451 764 l 451 451 l 417 451 l 417 417 l 451 417 l 451 104 l 417 104 l 417 69 l 69 69 l 69 104 l 417 104 l 417 417 l 104 417 l 104 451 l 69 451 l 69 764 m 104 451 l 417 451 l 417 764 l 104 764 l 104 451 m 139 729 l 382 729 l 382 486 l 139 486 l 139 729 m 174 521 l 347 521 l 347 694 l 174 694 l 174 521 z "}," ":{"ha":694,"x_min":0,"x_max":0,"o":""}," ":{"ha":694,"x_min":0,"x_max":0,"o":""},"%":{"ha":590,"x_min":0,"x_max":521,"o":"m 0 313 l 35 313 l 35 347 l 69 347 l 69 382 l 104 382 l 104 417 l 139 417 l 139 451 l 174 451 l 174 486 l 208 486 l 208 521 l 243 521 l 243 556 l 278 556 l 278 590 l 313 590 l 313 625 l 347 625 l 347 833 l 382 833 l 382 868 l 486 868 l 486 833 l 521 833 l 521 556 l 486 556 l 486 521 l 451 521 l 451 486 l 417 486 l 417 451 l 382 451 l 382 417 l 347 417 l 347 382 l 313 382 l 313 347 l 278 347 l 278 313 l 243 313 l 243 278 l 208 278 l 208 243 l 174 243 l 174 35 l 139 35 l 139 0 l 35 0 l 35 35 l 0 35 l 0 313 m 382 625 l 347 625 l 347 590 l 313 590 l 313 556 l 278 556 l 278 521 l 243 521 l 243 486 l 208 486 l 208 451 l 174 451 l 174 417 l 139 417 l 139 382 l 104 382 l 104 347 l 69 347 l 69 313 l 35 313 l 35 35 l 139 35 l 139 243 l 174 243 l 174 278 l 208 278 l 208 313 l 243 313 l 243 347 l 278 347 l 278 382 l 313 382 l 313 417 l 347 417 l 347 451 l 382 451 l 382 486 l 417 486 l 417 521 l 451 521 l 451 556 l 486 556 l 486 833 l 382 833 l 382 625 m 69 278 l 104 278 l 104 313 l 139 313 l 139 347 l 174 347 l 174 382 l 208 382 l 208 417 l 243 417 l 243 451 l 278 451 l 278 486 l 313 486 l 313 521 l 347 521 l 347 556 l 382 556 l 382 590 l 417 590 l 417 799 l 451 799 l 451 590 l 417 590 l 417 556 l 382 556 l 382 521 l 347 521 l 347 486 l 313 486 l 313 451 l 278 451 l 278 417 l 243 417 l 243 382 l 208 382 l 208 347 l 174 347 l 174 313 l 139 313 l 139 278 l 104 278 l 104 69 l 69 69 l 69 278 m 347 174 l 382 174 l 382 208 l 486 208 l 486 174 l 521 174 l 521 35 l 486 35 l 486 0 l 382 0 l 382 35 l 347 35 l 347 174 m 0 833 l 35 833 l 35 868 l 139 868 l 139 833 l 174 833 l 174 694 l 139 694 l 139 660 l 35 660 l 35 694 l 0 694 l 0 833 m 35 694 l 139 694 l 139 833 l 35 833 l 35 694 m 382 35 l 486 35 l 486 174 l 382 174 l 382 35 m 69 799 l 104 799 l 104 729 l 69 729 l 69 799 m 417 139 l 451 139 l 451 69 l 417 69 l 417 139 z "},"&":{"ha":590,"x_min":0,"x_max":521,"o":"m 0 799 l 35 799 l 35 833 l 69 833 l 69 868 l 382 868 l 382 833 l 417 833 l 417 799 l 451 799 l 451 521 l 486 521 l 486 486 l 521 486 l 521 382 l 486 382 l 486 347 l 451 347 l 451 174 l 486 174 l 486 139 l 521 139 l 521 35 l 486 35 l 486 0 l 69 0 l 69 35 l 35 35 l 35 69 l 0 69 l 0 799 m 382 833 l 69 833 l 69 799 l 35 799 l 35 69 l 69 69 l 69 35 l 486 35 l 486 139 l 417 139 l 417 382 l 486 382 l 486 486 l 417 486 l 417 799 l 382 799 l 382 833 m 69 764 l 104 764 l 104 799 l 347 799 l 347 764 l 382 764 l 382 451 l 451 451 l 451 417 l 382 417 l 382 104 l 451 104 l 451 69 l 382 69 l 382 104 l 347 104 l 347 69 l 104 69 l 104 104 l 69 104 l 69 417 l 104 417 l 104 451 l 69 451 l 69 764 m 104 451 l 347 451 l 347 764 l 104 764 l 104 451 m 104 104 l 347 104 l 347 417 l 104 417 l 104 104 m 139 729 l 313 729 l 313 486 l 139 486 l 139 729 m 139 382 l 313 382 l 313 139 l 139 139 l 139 382 m 174 521 l 278 521 l 278 694 l 174 694 l 174 521 m 174 174 l 278 174 l 278 347 l 174 347 l 174 174 m 347 417 l 382 417 l 382 451 l 347 451 l 347 417 z "},"'":{"ha":590,"x_min":174,"x_max":347,"o":"m 174 833 l 208 833 l 208 868 l 313 868 l 313 833 l 347 833 l 347 625 l 313 625 l 313 590 l 208 590 l 208 625 l 174 625 l 174 833 m 208 625 l 313 625 l 313 833 l 208 833 l 208 625 m 243 799 l 278 799 l 278 660 l 243 660 l 243 799 z "},"(":{"ha":590,"x_min":174,"x_max":521,"o":"m 174 764 l 208 764 l 208 799 l 243 799 l 243 833 l 278 833 l 278 868 l 486 868 l 486 833 l 521 833 l 521 729 l 486 729 l 486 694 l 347 694 l 347 174 l 486 174 l 486 139 l 521 139 l 521 35 l 486 35 l 486 0 l 278 0 l 278 35 l 243 35 l 243 69 l 208 69 l 208 104 l 174 104 l 174 764 m 313 694 l 347 694 l 347 729 l 486 729 l 486 833 l 278 833 l 278 799 l 243 799 l 243 764 l 208 764 l 208 104 l 243 104 l 243 69 l 278 69 l 278 35 l 486 35 l 486 139 l 347 139 l 347 174 l 313 174 l 313 694 m 243 729 l 278 729 l 278 764 l 313 764 l 313 799 l 451 799 l 451 764 l 313 764 l 313 729 l 278 729 l 278 139 l 313 139 l 313 104 l 451 104 l 451 69 l 313 69 l 313 104 l 278 104 l 278 139 l 243 139 l 243 729 z "},")":{"ha":590,"x_min":0,"x_max":347,"o":"m 0 833 l 35 833 l 35 868 l 243 868 l 243 833 l 278 833 l 278 799 l 313 799 l 313 764 l 347 764 l 347 104 l 313 104 l 313 69 l 278 69 l 278 35 l 243 35 l 243 0 l 35 0 l 35 35 l 0 35 l 0 139 l 35 139 l 35 174 l 174 174 l 174 694 l 35 694 l 35 729 l 0 729 l 0 833 m 243 833 l 35 833 l 35 729 l 174 729 l 174 694 l 208 694 l 208 174 l 174 174 l 174 139 l 35 139 l 35 35 l 243 35 l 243 69 l 278 69 l 278 104 l 313 104 l 313 764 l 278 764 l 278 799 l 243 799 l 243 833 m 69 799 l 208 799 l 208 764 l 243 764 l 243 729 l 278 729 l 278 139 l 243 139 l 243 104 l 208 104 l 208 69 l 69 69 l 69 104 l 208 104 l 208 139 l 243 139 l 243 729 l 208 729 l 208 764 l 69 764 l 69 799 z "},"*":{"ha":590,"x_min":35,"x_max":486,"o":"m 35 590 l 69 590 l 69 625 l 174 625 l 174 590 l 208 590 l 208 556 l 243 556 l 243 521 l 278 521 l 278 556 l 313 556 l 313 590 l 347 590 l 347 625 l 451 625 l 451 590 l 486 590 l 486 486 l 451 486 l 451 451 l 417 451 l 417 417 l 382 417 l 382 382 l 417 382 l 417 347 l 451 347 l 451 313 l 486 313 l 486 208 l 451 208 l 451 174 l 347 174 l 347 208 l 313 208 l 313 243 l 278 243 l 278 278 l 243 278 l 243 243 l 208 243 l 208 208 l 174 208 l 174 174 l 69 174 l 69 208 l 35 208 l 35 313 l 69 313 l 69 347 l 104 347 l 104 382 l 139 382 l 139 417 l 104 417 l 104 451 l 69 451 l 69 486 l 35 486 l 35 590 m 174 590 l 69 590 l 69 486 l 104 486 l 104 451 l 139 451 l 139 417 l 174 417 l 174 382 l 139 382 l 139 347 l 104 347 l 104 313 l 69 313 l 69 208 l 174 208 l 174 243 l 208 243 l 208 278 l 243 278 l 243 313 l 278 313 l 278 278 l 313 278 l 313 243 l 347 243 l 347 208 l 451 208 l 451 313 l 417 313 l 417 347 l 382 347 l 382 382 l 347 382 l 347 417 l 382 417 l 382 451 l 417 451 l 417 486 l 451 486 l 451 590 l 347 590 l 347 556 l 313 556 l 313 521 l 278 521 l 278 486 l 243 486 l 243 521 l 208 521 l 208 556 l 174 556 l 174 590 m 104 556 l 139 556 l 139 521 l 174 521 l 174 486 l 208 486 l 208 451 l 243 451 l 243 417 l 278 417 l 278 451 l 313 451 l 313 486 l 347 486 l 347 521 l 382 521 l 382 556 l 417 556 l 417 521 l 382 521 l 382 486 l 347 486 l 347 451 l 313 451 l 313 417 l 278 417 l 278 382 l 313 382 l 313 347 l 347 347 l 347 313 l 382 313 l 382 278 l 417 278 l 417 243 l 382 243 l 382 278 l 347 278 l 347 313 l 313 313 l 313 347 l 278 347 l 278 382 l 243 382 l 243 347 l 208 347 l 208 313 l 174 313 l 174 278 l 139 278 l 139 243 l 104 243 l 104 278 l 139 278 l 139 313 l 174 313 l 174 347 l 208 347 l 208 382 l 243 382 l 243 417 l 208 417 l 208 451 l 174 451 l 174 486 l 139 486 l 139 521 l 104 521 l 104 556 z "},"+":{"ha":590,"x_min":0,"x_max":521,"o":"m 0 486 l 35 486 l 35 521 l 174 521 l 174 660 l 208 660 l 208 694 l 313 694 l 313 660 l 347 660 l 347 521 l 486 521 l 486 486 l 521 486 l 521 382 l 486 382 l 486 347 l 347 347 l 347 208 l 313 208 l 313 174 l 208 174 l 208 208 l 174 208 l 174 347 l 35 347 l 35 382 l 0 382 l 0 486 m 208 486 l 35 486 l 35 382 l 208 382 l 208 208 l 313 208 l 313 382 l 486 382 l 486 486 l 313 486 l 313 660 l 208 660 l 208 486 m 69 451 l 243 451 l 243 625 l 278 625 l 278 451 l 451 451 l 451 417 l 278 417 l 278 243 l 243 243 l 243 417 l 69 417 l 69 451 z "},",":{"ha":590,"x_min":174,"x_max":417,"o":"m 174 208 l 208 208 l 208 243 l 313 243 l 313 208 l 347 208 l 347 174 l 382 174 l 382 139 l 417 139 l 417 35 l 382 35 l 382 0 l 278 0 l 278 35 l 243 35 l 243 69 l 208 69 l 208 104 l 174 104 l 174 208 m 208 104 l 243 104 l 243 69 l 278 69 l 278 35 l 382 35 l 382 139 l 347 139 l 347 174 l 313 174 l 313 208 l 208 208 l 208 104 m 243 174 l 278 174 l 278 139 l 313 139 l 313 104 l 347 104 l 347 69 l 313 69 l 313 104 l 278 104 l 278 139 l 243 139 l 243 174 z "},"-":{"ha":590,"x_min":0,"x_max":521,"o":"m 0 486 l 35 486 l 35 521 l 486 521 l 486 486 l 521 486 l 521 382 l 486 382 l 486 347 l 35 347 l 35 382 l 0 382 l 0 486 m 35 382 l 486 382 l 486 486 l 35 486 l 35 382 m 69 451 l 451 451 l 451 417 l 69 417 l 69 451 z "},".":{"ha":590,"x_min":174,"x_max":347,"o":"m 174 139 l 208 139 l 208 174 l 313 174 l 313 139 l 347 139 l 347 35 l 313 35 l 313 0 l 208 0 l 208 35 l 174 35 l 174 139 m 208 35 l 313 35 l 313 139 l 208 139 l 208 35 m 243 104 l 278 104 l 278 69 l 243 69 l 243 104 z "},"/":{"ha":590,"x_min":0,"x_max":521,"o":"m 0 313 l 35 313 l 35 347 l 69 347 l 69 382 l 104 382 l 104 417 l 139 417 l 139 451 l 174 451 l 174 486 l 208 486 l 208 521 l 243 521 l 243 556 l 278 556 l 278 590 l 313 590 l 313 625 l 347 625 l 347 833 l 382 833 l 382 868 l 486 868 l 486 833 l 521 833 l 521 556 l 486 556 l 486 521 l 451 521 l 451 486 l 417 486 l 417 451 l 382 451 l 382 417 l 347 417 l 347 382 l 313 382 l 313 347 l 278 347 l 278 313 l 243 313 l 243 278 l 208 278 l 208 243 l 174 243 l 174 35 l 139 35 l 139 0 l 35 0 l 35 35 l 0 35 l 0 313 m 382 625 l 347 625 l 347 590 l 313 590 l 313 556 l 278 556 l 278 521 l 243 521 l 243 486 l 208 486 l 208 451 l 174 451 l 174 417 l 139 417 l 139 382 l 104 382 l 104 347 l 69 347 l 69 313 l 35 313 l 35 35 l 139 35 l 139 243 l 174 243 l 174 278 l 208 278 l 208 313 l 243 313 l 243 347 l 278 347 l 278 382 l 313 382 l 313 417 l 347 417 l 347 451 l 382 451 l 382 486 l 417 486 l 417 521 l 451 521 l 451 556 l 486 556 l 486 833 l 382 833 l 382 625 m 69 278 l 104 278 l 104 313 l 139 313 l 139 347 l 174 347 l 174 382 l 208 382 l 208 417 l 243 417 l 243 451 l 278 451 l 278 486 l 313 486 l 313 521 l 347 521 l 347 556 l 382 556 l 382 590 l 417 590 l 417 799 l 451 799 l 451 590 l 417 590 l 417 556 l 382 556 l 382 521 l 347 521 l 347 486 l 313 486 l 313 451 l 278 451 l 278 417 l 243 417 l 243 382 l 208 382 l 208 347 l 174 347 l 174 313 l 139 313 l 139 278 l 104 278 l 104 69 l 69 69 l 69 278 z "},":":{"ha":590,"x_min":174,"x_max":347,"o":"m 174 660 l 208 660 l 208 694 l 313 694 l 313 660 l 347 660 l 347 556 l 313 556 l 313 521 l 208 521 l 208 556 l 174 556 l 174 660 m 174 313 l 208 313 l 208 347 l 313 347 l 313 313 l 347 313 l 347 208 l 313 208 l 313 174 l 208 174 l 208 208 l 174 208 l 174 313 m 208 208 l 313 208 l 313 313 l 208 313 l 208 208 m 208 556 l 313 556 l 313 660 l 208 660 l 208 556 m 243 625 l 278 625 l 278 590 l 243 590 l 243 625 m 243 278 l 278 278 l 278 243 l 243 243 l 243 278 z "},";":{"ha":590,"x_min":174,"x_max":417,"o":"m 174 208 l 208 208 l 208 243 l 313 243 l 313 208 l 347 208 l 347 174 l 382 174 l 382 139 l 417 139 l 417 35 l 382 35 l 382 0 l 278 0 l 278 35 l 243 35 l 243 69 l 208 69 l 208 104 l 174 104 l 174 208 m 174 660 l 208 660 l 208 694 l 313 694 l 313 660 l 347 660 l 347 556 l 313 556 l 313 521 l 208 521 l 208 556 l 174 556 l 174 660 m 313 208 l 208 208 l 208 104 l 243 104 l 243 69 l 278 69 l 278 35 l 382 35 l 382 139 l 347 139 l 347 174 l 313 174 l 313 208 m 208 556 l 313 556 l 313 660 l 208 660 l 208 556 m 243 174 l 278 174 l 278 139 l 313 139 l 313 104 l 347 104 l 347 69 l 313 69 l 313 104 l 278 104 l 278 139 l 243 139 l 243 174 m 243 625 l 278 625 l 278 590 l 243 590 l 243 625 z "},"<":{"ha":590,"x_min":35,"x_max":417,"o":"m 35 451 l 69 451 l 69 486 l 104 486 l 104 521 l 139 521 l 139 556 l 174 556 l 174 590 l 208 590 l 208 625 l 243 625 l 243 660 l 278 660 l 278 694 l 382 694 l 382 660 l 417 660 l 417 556 l 382 556 l 382 521 l 347 521 l 347 486 l 313 486 l 313 451 l 278 451 l 278 417 l 313 417 l 313 382 l 347 382 l 347 347 l 382 347 l 382 313 l 417 313 l 417 208 l 382 208 l 382 174 l 278 174 l 278 208 l 243 208 l 243 243 l 208 243 l 208 278 l 174 278 l 174 313 l 139 313 l 139 347 l 104 347 l 104 382 l 69 382 l 69 417 l 35 417 l 35 451 m 243 451 l 278 451 l 278 486 l 313 486 l 313 521 l 347 521 l 347 556 l 382 556 l 382 660 l 278 660 l 278 625 l 243 625 l 243 590 l 208 590 l 208 556 l 174 556 l 174 521 l 139 521 l 139 486 l 104 486 l 104 451 l 69 451 l 69 417 l 104 417 l 104 382 l 139 382 l 139 347 l 174 347 l 174 313 l 208 313 l 208 278 l 243 278 l 243 243 l 278 243 l 278 208 l 382 208 l 382 313 l 347 313 l 347 347 l 313 347 l 313 382 l 278 382 l 278 417 l 243 417 l 243 451 m 139 451 l 174 451 l 174 486 l 208 486 l 208 521 l 243 521 l 243 556 l 278 556 l 278 590 l 313 590 l 313 625 l 347 625 l 347 590 l 313 590 l 313 556 l 278 556 l 278 521 l 243 521 l 243 486 l 208 486 l 208 451 l 174 451 l 174 417 l 208 417 l 208 382 l 243 382 l 243 347 l 278 347 l 278 313 l 313 313 l 313 278 l 347 278 l 347 243 l 313 243 l 313 278 l 278 278 l 278 313 l 243 313 l 243 347 l 208 347 l 208 382 l 174 382 l 174 417 l 139 417 l 139 451 z "},"=":{"ha":590,"x_min":0,"x_max":521,"o":"m 0 660 l 35 660 l 35 694 l 486 694 l 486 660 l 521 660 l 521 556 l 486 556 l 486 521 l 35 521 l 35 556 l 0 556 l 0 660 m 0 313 l 35 313 l 35 347 l 486 347 l 486 313 l 521 313 l 521 208 l 486 208 l 486 174 l 35 174 l 35 208 l 0 208 l 0 313 m 35 556 l 486 556 l 486 660 l 35 660 l 35 556 m 35 208 l 486 208 l 486 313 l 35 313 l 35 208 m 69 278 l 451 278 l 451 243 l 69 243 l 69 278 m 69 625 l 451 625 l 451 590 l 69 590 l 69 625 z "},">":{"ha":590,"x_min":35,"x_max":417,"o":"m 35 660 l 69 660 l 69 694 l 174 694 l 174 660 l 208 660 l 208 625 l 243 625 l 243 590 l 278 590 l 278 556 l 313 556 l 313 521 l 347 521 l 347 486 l 382 486 l 382 451 l 417 451 l 417 417 l 382 417 l 382 382 l 347 382 l 347 347 l 313 347 l 313 313 l 278 313 l 278 278 l 243 278 l 243 243 l 208 243 l 208 208 l 174 208 l 174 174 l 69 174 l 69 208 l 35 208 l 35 313 l 69 313 l 69 347 l 104 347 l 104 382 l 139 382 l 139 417 l 174 417 l 174 451 l 139 451 l 139 486 l 104 486 l 104 521 l 69 521 l 69 556 l 35 556 l 35 660 m 174 660 l 69 660 l 69 556 l 104 556 l 104 521 l 139 521 l 139 486 l 174 486 l 174 451 l 208 451 l 208 417 l 174 417 l 174 382 l 139 382 l 139 347 l 104 347 l 104 313 l 69 313 l 69 208 l 174 208 l 174 243 l 208 243 l 208 278 l 243 278 l 243 313 l 278 313 l 278 347 l 313 347 l 313 382 l 347 382 l 347 417 l 382 417 l 382 451 l 347 451 l 347 486 l 313 486 l 313 521 l 278 521 l 278 556 l 243 556 l 243 590 l 208 590 l 208 625 l 174 625 l 174 660 m 104 625 l 139 625 l 139 590 l 174 590 l 174 556 l 208 556 l 208 521 l 243 521 l 243 486 l 278 486 l 278 451 l 313 451 l 313 417 l 278 417 l 278 382 l 243 382 l 243 347 l 208 347 l 208 313 l 174 313 l 174 278 l 139 278 l 139 243 l 104 243 l 104 278 l 139 278 l 139 313 l 174 313 l 174 347 l 208 347 l 208 382 l 243 382 l 243 417 l 278 417 l 278 451 l 243 451 l 243 486 l 208 486 l 208 521 l 174 521 l 174 556 l 139 556 l 139 590 l 104 590 l 104 625 z "},"?":{"ha":590,"x_min":0,"x_max":521,"o":"m 0 833 l 35 833 l 35 868 l 451 868 l 451 833 l 486 833 l 486 799 l 521 799 l 521 417 l 486 417 l 486 382 l 451 382 l 451 347 l 347 347 l 347 243 l 313 243 l 313 208 l 208 208 l 208 243 l 174 243 l 174 451 l 208 451 l 208 486 l 243 486 l 243 521 l 347 521 l 347 694 l 35 694 l 35 729 l 0 729 l 0 833 m 451 833 l 35 833 l 35 729 l 382 729 l 382 486 l 243 486 l 243 451 l 208 451 l 208 243 l 313 243 l 313 382 l 451 382 l 451 417 l 486 417 l 486 799 l 451 799 l 451 833 m 69 799 l 417 799 l 417 764 l 451 764 l 451 451 l 417 451 l 417 417 l 278 417 l 278 278 l 243 278 l 243 417 l 278 417 l 278 451 l 417 451 l 417 764 l 69 764 l 69 799 m 174 139 l 208 139 l 208 174 l 313 174 l 313 139 l 347 139 l 347 35 l 313 35 l 313 0 l 208 0 l 208 35 l 174 35 l 174 139 m 208 35 l 313 35 l 313 139 l 208 139 l 208 35 m 243 104 l 278 104 l 278 69 l 243 69 l 243 104 z "},"@":{"ha":590,"x_min":0,"x_max":521,"o":"m 0 799 l 35 799 l 35 833 l 69 833 l 69 868 l 451 868 l 451 833 l 486 833 l 486 799 l 521 799 l 521 347 l 486 347 l 486 313 l 451 313 l 451 278 l 243 278 l 243 313 l 208 313 l 208 417 l 243 417 l 243 451 l 347 451 l 347 694 l 174 694 l 174 174 l 486 174 l 486 139 l 521 139 l 521 35 l 486 35 l 486 0 l 69 0 l 69 35 l 35 35 l 35 69 l 0 69 l 0 799 m 451 833 l 69 833 l 69 799 l 35 799 l 35 69 l 69 69 l 69 35 l 486 35 l 486 139 l 139 139 l 139 729 l 382 729 l 382 417 l 243 417 l 243 313 l 451 313 l 451 347 l 486 347 l 486 799 l 451 799 l 451 833 m 69 764 l 104 764 l 104 799 l 417 799 l 417 764 l 451 764 l 451 382 l 417 382 l 417 347 l 278 347 l 278 382 l 417 382 l 417 764 l 104 764 l 104 104 l 451 104 l 451 69 l 104 69 l 104 104 l 69 104 l 69 764 z "},"A":{"ha":590,"x_min":0,"x_max":521,"o":"m 0 799 l 35 799 l 35 833 l 69 833 l 69 868 l 451 868 l 451 833 l 486 833 l 486 799 l 521 799 l 521 35 l 486 35 l 486 0 l 382 0 l 382 35 l 347 35 l 347 347 l 174 347 l 174 35 l 139 35 l 139 0 l 35 0 l 35 35 l 0 35 l 0 799 m 451 833 l 69 833 l 69 799 l 35 799 l 35 35 l 139 35 l 139 382 l 382 382 l 382 35 l 486 35 l 486 799 l 451 799 l 451 833 m 69 764 l 104 764 l 104 799 l 417 799 l 417 764 l 451 764 l 451 451 l 417 451 l 417 417 l 451 417 l 451 69 l 417 69 l 417 417 l 104 417 l 104 69 l 69 69 l 69 417 l 104 417 l 104 451 l 69 451 l 69 764 m 104 451 l 417 451 l 417 764 l 104 764 l 104 451 m 139 729 l 382 729 l 382 486 l 139 486 l 139 729 m 174 521 l 347 521 l 347 694 l 174 694 l 174 521 z "},"B":{"ha":590,"x_min":0,"x_max":521,"o":"m 0 833 l 35 833 l 35 868 l 417 868 l 417 833 l 451 833 l 451 799 l 486 799 l 486 764 l 521 764 l 521 451 l 486 451 l 486 417 l 521 417 l 521 104 l 486 104 l 486 69 l 451 69 l 451 35 l 417 35 l 417 0 l 35 0 l 35 35 l 0 35 l 0 833 m 417 833 l 35 833 l 35 35 l 417 35 l 417 69 l 451 69 l 451 104 l 486 104 l 486 417 l 451 417 l 451 451 l 486 451 l 486 764 l 451 764 l 451 799 l 417 799 l 417 833 m 69 799 l 382 799 l 382 764 l 417 764 l 417 729 l 451 729 l 451 486 l 417 486 l 417 451 l 382 451 l 382 417 l 417 417 l 417 382 l 451 382 l 451 139 l 417 139 l 417 104 l 382 104 l 382 69 l 69 69 l 69 417 l 104 417 l 104 451 l 69 451 l 69 799 m 382 764 l 104 764 l 104 451 l 382 451 l 382 486 l 417 486 l 417 729 l 382 729 l 382 764 m 382 417 l 104 417 l 104 104 l 382 104 l 382 139 l 417 139 l 417 382 l 382 382 l 382 417 m 139 729 l 347 729 l 347 694 l 382 694 l 382 521 l 347 521 l 347 486 l 139 486 l 139 729 m 139 382 l 347 382 l 347 347 l 382 347 l 382 174 l 347 174 l 347 139 l 139 139 l 139 382 m 174 521 l 347 521 l 347 694 l 174 694 l 174 521 m 174 174 l 347 174 l 347 347 l 174 347 l 174 174 z "},"C":{"ha":590,"x_min":0,"x_max":521,"o":"m 0 799 l 35 799 l 35 833 l 69 833 l 69 868 l 486 868 l 486 833 l 521 833 l 521 729 l 486 729 l 486 694 l 174 694 l 174 174 l 486 174 l 486 139 l 521 139 l 521 35 l 486 35 l 486 0 l 69 0 l 69 35 l 35 35 l 35 69 l 0 69 l 0 799 m 139 729 l 486 729 l 486 833 l 69 833 l 69 799 l 35 799 l 35 69 l 69 69 l 69 35 l 486 35 l 486 139 l 139 139 l 139 729 m 69 764 l 104 764 l 104 799 l 451 799 l 451 764 l 104 764 l 104 104 l 451 104 l 451 69 l 104 69 l 104 104 l 69 104 l 69 764 z "},"D":{"ha":590,"x_min":0,"x_max":521,"o":"m 0 833 l 35 833 l 35 868 l 417 868 l 417 833 l 451 833 l 451 799 l 486 799 l 486 764 l 521 764 l 521 104 l 486 104 l 486 69 l 451 69 l 451 35 l 417 35 l 417 0 l 35 0 l 35 35 l 0 35 l 0 833 m 417 833 l 35 833 l 35 35 l 417 35 l 417 69 l 451 69 l 451 104 l 486 104 l 486 764 l 451 764 l 451 799 l 417 799 l 417 833 m 69 799 l 382 799 l 382 764 l 417 764 l 417 729 l 451 729 l 451 139 l 417 139 l 417 104 l 382 104 l 382 69 l 69 69 l 69 799 m 382 764 l 104 764 l 104 104 l 382 104 l 382 139 l 417 139 l 417 729 l 382 729 l 382 764 m 139 729 l 347 729 l 347 694 l 382 694 l 382 174 l 347 174 l 347 139 l 139 139 l 139 729 m 174 174 l 347 174 l 347 694 l 174 694 l 174 174 z "},"E":{"ha":590,"x_min":0,"x_max":521,"o":"m 0 799 l 35 799 l 35 833 l 69 833 l 69 868 l 486 868 l 486 833 l 521 833 l 521 729 l 486 729 l 486 694 l 174 694 l 174 521 l 451 521 l 451 486 l 486 486 l 486 382 l 451 382 l 451 347 l 174 347 l 174 174 l 486 174 l 486 139 l 521 139 l 521 35 l 486 35 l 486 0 l 69 0 l 69 35 l 35 35 l 35 69 l 0 69 l 0 799 m 139 729 l 486 729 l 486 833 l 69 833 l 69 799 l 35 799 l 35 69 l 69 69 l 69 35 l 486 35 l 486 139 l 139 139 l 139 382 l 451 382 l 451 486 l 139 486 l 139 729 m 69 764 l 104 764 l 104 799 l 451 799 l 451 764 l 104 764 l 104 451 l 417 451 l 417 417 l 104 417 l 104 104 l 451 104 l 451 69 l 104 69 l 104 104 l 69 104 l 69 417 l 104 417 l 104 451 l 69 451 l 69 764 z "},"F":{"ha":590,"x_min":0,"x_max":521,"o":"m 0 799 l 35 799 l 35 833 l 69 833 l 69 868 l 486 868 l 486 833 l 521 833 l 521 729 l 486 729 l 486 694 l 174 694 l 174 521 l 451 521 l 451 486 l 486 486 l 486 382 l 451 382 l 451 347 l 174 347 l 174 35 l 139 35 l 139 0 l 35 0 l 35 35 l 0 35 l 0 799 m 139 729 l 486 729 l 486 833 l 69 833 l 69 799 l 35 799 l 35 35 l 139 35 l 139 382 l 451 382 l 451 486 l 139 486 l 139 729 m 69 764 l 104 764 l 104 799 l 451 799 l 451 764 l 104 764 l 104 451 l 417 451 l 417 417 l 104 417 l 104 69 l 69 69 l 69 417 l 104 417 l 104 451 l 69 451 l 69 764 z "},"G":{"ha":590,"x_min":0,"x_max":521,"o":"m 0 799 l 35 799 l 35 833 l 69 833 l 69 868 l 486 868 l 486 833 l 521 833 l 521 729 l 486 729 l 486 694 l 174 694 l 174 174 l 347 174 l 347 347 l 278 347 l 278 382 l 243 382 l 243 486 l 278 486 l 278 521 l 451 521 l 451 486 l 486 486 l 486 451 l 521 451 l 521 69 l 486 69 l 486 35 l 451 35 l 451 0 l 69 0 l 69 35 l 35 35 l 35 69 l 0 69 l 0 799 m 139 729 l 486 729 l 486 833 l 69 833 l 69 799 l 35 799 l 35 69 l 69 69 l 69 35 l 451 35 l 451 69 l 486 69 l 486 451 l 451 451 l 451 486 l 278 486 l 278 382 l 382 382 l 382 139 l 139 139 l 139 729 m 69 764 l 104 764 l 104 799 l 451 799 l 451 764 l 104 764 l 104 104 l 417 104 l 417 417 l 313 417 l 313 451 l 417 451 l 417 417 l 451 417 l 451 104 l 417 104 l 417 69 l 104 69 l 104 104 l 69 104 l 69 764 z "},"H":{"ha":590,"x_min":0,"x_max":521,"o":"m 0 833 l 35 833 l 35 868 l 139 868 l 139 833 l 174 833 l 174 521 l 347 521 l 347 833 l 382 833 l 382 868 l 486 868 l 486 833 l 521 833 l 521 35 l 486 35 l 486 0 l 382 0 l 382 35 l 347 35 l 347 347 l 174 347 l 174 35 l 139 35 l 139 0 l 35 0 l 35 35 l 0 35 l 0 833 m 139 833 l 35 833 l 35 35 l 139 35 l 139 382 l 382 382 l 382 35 l 486 35 l 486 833 l 382 833 l 382 486 l 139 486 l 139 833 m 69 799 l 104 799 l 104 451 l 417 451 l 417 799 l 451 799 l 451 451 l 417 451 l 417 417 l 451 417 l 451 69 l 417 69 l 417 417 l 104 417 l 104 69 l 69 69 l 69 417 l 104 417 l 104 451 l 69 451 l 69 799 z "},"I":{"ha":590,"x_min":0,"x_max":521,"o":"m 0 833 l 35 833 l 35 868 l 486 868 l 486 833 l 521 833 l 521 729 l 486 729 l 486 694 l 347 694 l 347 174 l 486 174 l 486 139 l 521 139 l 521 35 l 486 35 l 486 0 l 35 0 l 35 35 l 0 35 l 0 139 l 35 139 l 35 174 l 174 174 l 174 694 l 35 694 l 35 729 l 0 729 l 0 833 m 313 729 l 486 729 l 486 833 l 35 833 l 35 729 l 208 729 l 208 139 l 35 139 l 35 35 l 486 35 l 486 139 l 313 139 l 313 729 m 69 799 l 243 799 l 243 764 l 278 764 l 278 799 l 451 799 l 451 764 l 278 764 l 278 104 l 451 104 l 451 69 l 278 69 l 278 104 l 243 104 l 243 69 l 69 69 l 69 104 l 243 104 l 243 764 l 69 764 l 69 799 z "},"J":{"ha":590,"x_min":0,"x_max":521,"o":"m 0 833 l 35 833 l 35 868 l 451 868 l 451 833 l 486 833 l 486 799 l 521 799 l 521 69 l 486 69 l 486 35 l 451 35 l 451 0 l 69 0 l 69 35 l 35 35 l 35 69 l 0 69 l 0 417 l 35 417 l 35 451 l 139 451 l 139 417 l 174 417 l 174 174 l 347 174 l 347 694 l 35 694 l 35 729 l 0 729 l 0 833 m 451 833 l 35 833 l 35 729 l 382 729 l 382 139 l 139 139 l 139 417 l 35 417 l 35 69 l 69 69 l 69 35 l 451 35 l 451 69 l 486 69 l 486 799 l 451 799 l 451 833 m 69 799 l 417 799 l 417 764 l 451 764 l 451 104 l 417 104 l 417 69 l 104 69 l 104 104 l 69 104 l 69 382 l 104 382 l 104 104 l 417 104 l 417 764 l 69 764 l 69 799 z "},"K":{"ha":590,"x_min":0,"x_max":521,"o":"m 0 833 l 35 833 l 35 868 l 139 868 l 139 833 l 174 833 l 174 521 l 243 521 l 243 556 l 278 556 l 278 590 l 313 590 l 313 625 l 347 625 l 347 833 l 382 833 l 382 868 l 486 868 l 486 833 l 521 833 l 521 556 l 486 556 l 486 521 l 451 521 l 451 486 l 417 486 l 417 451 l 382 451 l 382 417 l 417 417 l 417 382 l 451 382 l 451 347 l 486 347 l 486 313 l 521 313 l 521 35 l 486 35 l 486 0 l 382 0 l 382 35 l 347 35 l 347 243 l 313 243 l 313 278 l 278 278 l 278 313 l 243 313 l 243 347 l 174 347 l 174 35 l 139 35 l 139 0 l 35 0 l 35 35 l 0 35 l 0 833 m 347 451 l 382 451 l 382 486 l 417 486 l 417 521 l 451 521 l 451 556 l 486 556 l 486 833 l 382 833 l 382 625 l 347 625 l 347 590 l 313 590 l 313 556 l 278 556 l 278 521 l 243 521 l 243 486 l 139 486 l 139 833 l 35 833 l 35 35 l 139 35 l 139 382 l 243 382 l 243 347 l 278 347 l 278 313 l 313 313 l 313 278 l 347 278 l 347 243 l 382 243 l 382 35 l 486 35 l 486 313 l 451 313 l 451 347 l 417 347 l 417 382 l 382 382 l 382 417 l 347 417 l 347 451 m 69 799 l 104 799 l 104 451 l 278 451 l 278 486 l 313 486 l 313 521 l 347 521 l 347 556 l 382 556 l 382 590 l 417 590 l 417 799 l 451 799 l 451 590 l 417 590 l 417 556 l 382 556 l 382 521 l 347 521 l 347 486 l 313 486 l 313 451 l 278 451 l 278 417 l 313 417 l 313 382 l 347 382 l 347 347 l 382 347 l 382 313 l 417 313 l 417 278 l 451 278 l 451 69 l 417 69 l 417 278 l 382 278 l 382 313 l 347 313 l 347 347 l 313 347 l 313 382 l 278 382 l 278 417 l 104 417 l 104 69 l 69 69 l 69 417 l 104 417 l 104 451 l 69 451 l 69 799 z "},"L":{"ha":590,"x_min":0,"x_max":521,"o":"m 0 833 l 35 833 l 35 868 l 139 868 l 139 833 l 174 833 l 174 174 l 486 174 l 486 139 l 521 139 l 521 35 l 486 35 l 486 0 l 69 0 l 69 35 l 35 35 l 35 69 l 0 69 l 0 833 m 139 833 l 35 833 l 35 69 l 69 69 l 69 35 l 486 35 l 486 139 l 139 139 l 139 833 m 69 799 l 104 799 l 104 104 l 451 104 l 451 69 l 104 69 l 104 104 l 69 104 l 69 799 z "},"M":{"ha":590,"x_min":0,"x_max":521,"o":"m 0 833 l 35 833 l 35 868 l 139 868 l 139 833 l 174 833 l 174 625 l 208 625 l 208 590 l 243 590 l 243 556 l 278 556 l 278 590 l 313 590 l 313 625 l 347 625 l 347 833 l 382 833 l 382 868 l 486 868 l 486 833 l 521 833 l 521 35 l 486 35 l 486 0 l 382 0 l 382 35 l 347 35 l 347 382 l 313 382 l 313 347 l 278 347 l 278 313 l 243 313 l 243 347 l 208 347 l 208 382 l 174 382 l 174 35 l 139 35 l 139 0 l 35 0 l 35 35 l 0 35 l 0 833 m 35 35 l 139 35 l 139 451 l 174 451 l 174 417 l 208 417 l 208 382 l 243 382 l 243 347 l 278 347 l 278 382 l 313 382 l 313 417 l 347 417 l 347 451 l 382 451 l 382 35 l 486 35 l 486 833 l 382 833 l 382 625 l 347 625 l 347 590 l 313 590 l 313 556 l 278 556 l 278 521 l 243 521 l 243 556 l 208 556 l 208 590 l 174 590 l 174 625 l 139 625 l 139 833 l 35 833 l 35 35 m 69 799 l 104 799 l 104 590 l 139 590 l 139 556 l 174 556 l 174 521 l 208 521 l 208 486 l 243 486 l 243 451 l 278 451 l 278 486 l 313 486 l 313 521 l 347 521 l 347 556 l 382 556 l 382 590 l 417 590 l 417 799 l 451 799 l 451 69 l 417 69 l 417 556 l 382 556 l 382 521 l 347 521 l 347 486 l 313 486 l 313 451 l 278 451 l 278 417 l 243 417 l 243 451 l 208 451 l 208 486 l 174 486 l 174 521 l 139 521 l 139 556 l 104 556 l 104 69 l 69 69 l 69 799 z "},"N":{"ha":590,"x_min":0,"x_max":521,"o":"m 0 833 l 35 833 l 35 868 l 139 868 l 139 833 l 174 833 l 174 625 l 208 625 l 208 590 l 243 590 l 243 556 l 278 556 l 278 521 l 313 521 l 313 486 l 347 486 l 347 833 l 382 833 l 382 868 l 486 868 l 486 833 l 521 833 l 521 35 l 486 35 l 486 0 l 382 0 l 382 35 l 347 35 l 347 243 l 313 243 l 313 278 l 278 278 l 278 313 l 243 313 l 243 347 l 208 347 l 208 382 l 174 382 l 174 35 l 139 35 l 139 0 l 35 0 l 35 35 l 0 35 l 0 833 m 35 35 l 139 35 l 139 451 l 174 451 l 174 417 l 208 417 l 208 382 l 243 382 l 243 347 l 278 347 l 278 313 l 313 313 l 313 278 l 347 278 l 347 243 l 382 243 l 382 35 l 486 35 l 486 833 l 382 833 l 382 417 l 347 417 l 347 451 l 313 451 l 313 486 l 278 486 l 278 521 l 243 521 l 243 556 l 208 556 l 208 590 l 174 590 l 174 625 l 139 625 l 139 833 l 35 833 l 35 35 m 69 799 l 104 799 l 104 590 l 139 590 l 139 556 l 174 556 l 174 521 l 208 521 l 208 486 l 243 486 l 243 451 l 278 451 l 278 417 l 313 417 l 313 382 l 347 382 l 347 347 l 382 347 l 382 313 l 417 313 l 417 799 l 451 799 l 451 69 l 417 69 l 417 278 l 382 278 l 382 313 l 347 313 l 347 347 l 313 347 l 313 382 l 278 382 l 278 417 l 243 417 l 243 451 l 208 451 l 208 486 l 174 486 l 174 521 l 139 521 l 139 556 l 104 556 l 104 69 l 69 69 l 69 799 z "},"O":{"ha":590,"x_min":0,"x_max":521,"o":"m 0 799 l 35 799 l 35 833 l 69 833 l 69 868 l 451 868 l 451 833 l 486 833 l 486 799 l 521 799 l 521 69 l 486 69 l 486 35 l 451 35 l 451 0 l 69 0 l 69 35 l 35 35 l 35 69 l 0 69 l 0 799 m 451 833 l 69 833 l 69 799 l 35 799 l 35 69 l 69 69 l 69 35 l 451 35 l 451 69 l 486 69 l 486 799 l 451 799 l 451 833 m 69 764 l 104 764 l 104 799 l 417 799 l 417 764 l 451 764 l 451 104 l 417 104 l 417 69 l 104 69 l 104 104 l 69 104 l 69 764 m 104 104 l 417 104 l 417 764 l 104 764 l 104 104 m 139 729 l 382 729 l 382 139 l 139 139 l 139 729 m 174 174 l 347 174 l 347 694 l 174 694 l 174 174 z "},"P":{"ha":590,"x_min":0,"x_max":521,"o":"m 0 799 l 35 799 l 35 833 l 69 833 l 69 868 l 451 868 l 451 833 l 486 833 l 486 799 l 521 799 l 521 417 l 486 417 l 486 382 l 451 382 l 451 347 l 174 347 l 174 35 l 139 35 l 139 0 l 35 0 l 35 35 l 0 35 l 0 799 m 451 833 l 69 833 l 69 799 l 35 799 l 35 35 l 139 35 l 139 382 l 451 382 l 451 417 l 486 417 l 486 799 l 451 799 l 451 833 m 69 764 l 104 764 l 104 799 l 417 799 l 417 764 l 451 764 l 451 451 l 417 451 l 417 417 l 104 417 l 104 69 l 69 69 l 69 417 l 104 417 l 104 451 l 69 451 l 69 764 m 104 451 l 417 451 l 417 764 l 104 764 l 104 451 m 139 729 l 382 729 l 382 486 l 139 486 l 139 729 m 174 521 l 347 521 l 347 694 l 174 694 l 174 521 z "},"Q":{"ha":590,"x_min":0,"x_max":521,"o":"m 0 799 l 35 799 l 35 833 l 69 833 l 69 868 l 451 868 l 451 833 l 486 833 l 486 799 l 521 799 l 521 174 l 486 174 l 486 139 l 451 139 l 451 104 l 417 104 l 417 69 l 382 69 l 382 35 l 347 35 l 347 0 l 69 0 l 69 35 l 35 35 l 35 69 l 0 69 l 0 799 m 451 833 l 69 833 l 69 799 l 35 799 l 35 69 l 69 69 l 69 35 l 347 35 l 347 69 l 382 69 l 382 139 l 451 139 l 451 174 l 486 174 l 486 799 l 451 799 l 451 833 m 69 764 l 104 764 l 104 799 l 417 799 l 417 764 l 451 764 l 451 208 l 417 208 l 417 174 l 347 174 l 347 104 l 313 104 l 313 69 l 104 69 l 104 104 l 69 104 l 69 764 m 104 104 l 313 104 l 313 174 l 347 174 l 347 208 l 417 208 l 417 764 l 104 764 l 104 104 m 139 729 l 382 729 l 382 243 l 313 243 l 313 208 l 278 208 l 278 139 l 139 139 l 139 729 m 174 174 l 243 174 l 243 208 l 278 208 l 278 243 l 313 243 l 313 278 l 347 278 l 347 694 l 174 694 l 174 174 z "},"R":{"ha":590,"x_min":0,"x_max":521,"o":"m 0 799 l 35 799 l 35 833 l 69 833 l 69 868 l 451 868 l 451 833 l 486 833 l 486 799 l 521 799 l 521 417 l 486 417 l 486 382 l 451 382 l 451 347 l 486 347 l 486 313 l 521 313 l 521 35 l 486 35 l 486 0 l 382 0 l 382 35 l 347 35 l 347 243 l 313 243 l 313 278 l 278 278 l 278 313 l 243 313 l 243 347 l 174 347 l 174 35 l 139 35 l 139 0 l 35 0 l 35 35 l 0 35 l 0 799 m 451 833 l 69 833 l 69 799 l 35 799 l 35 35 l 139 35 l 139 382 l 243 382 l 243 347 l 278 347 l 278 313 l 313 313 l 313 278 l 347 278 l 347 243 l 382 243 l 382 35 l 486 35 l 486 313 l 451 313 l 451 347 l 417 347 l 417 382 l 451 382 l 451 417 l 486 417 l 486 799 l 451 799 l 451 833 m 69 764 l 104 764 l 104 799 l 417 799 l 417 764 l 451 764 l 451 451 l 417 451 l 417 417 l 313 417 l 313 382 l 347 382 l 347 347 l 382 347 l 382 313 l 417 313 l 417 278 l 451 278 l 451 69 l 417 69 l 417 278 l 382 278 l 382 313 l 347 313 l 347 347 l 313 347 l 313 382 l 278 382 l 278 417 l 104 417 l 104 69 l 69 69 l 69 417 l 104 417 l 104 451 l 69 451 l 69 764 m 104 451 l 417 451 l 417 764 l 104 764 l 104 451 m 139 729 l 382 729 l 382 486 l 139 486 l 139 729 m 174 521 l 347 521 l 347 694 l 174 694 l 174 521 z "},"S":{"ha":590,"x_min":0,"x_max":521,"o":"m 0 799 l 35 799 l 35 833 l 69 833 l 69 868 l 486 868 l 486 833 l 521 833 l 521 729 l 486 729 l 486 694 l 174 694 l 174 521 l 451 521 l 451 486 l 486 486 l 486 451 l 521 451 l 521 69 l 486 69 l 486 35 l 451 35 l 451 0 l 35 0 l 35 35 l 0 35 l 0 139 l 35 139 l 35 174 l 347 174 l 347 347 l 69 347 l 69 382 l 35 382 l 35 417 l 0 417 l 0 799 m 139 729 l 486 729 l 486 833 l 69 833 l 69 799 l 35 799 l 35 417 l 69 417 l 69 382 l 382 382 l 382 139 l 35 139 l 35 35 l 451 35 l 451 69 l 486 69 l 486 451 l 451 451 l 451 486 l 139 486 l 139 729 m 69 764 l 104 764 l 104 799 l 451 799 l 451 764 l 104 764 l 104 451 l 417 451 l 417 417 l 451 417 l 451 104 l 417 104 l 417 69 l 69 69 l 69 104 l 417 104 l 417 417 l 104 417 l 104 451 l 69 451 l 69 764 z "},"T":{"ha":590,"x_min":0,"x_max":521,"o":"m 0 833 l 35 833 l 35 868 l 486 868 l 486 833 l 521 833 l 521 729 l 486 729 l 486 694 l 347 694 l 347 35 l 313 35 l 313 0 l 208 0 l 208 35 l 174 35 l 174 694 l 35 694 l 35 729 l 0 729 l 0 833 m 35 729 l 208 729 l 208 35 l 313 35 l 313 729 l 486 729 l 486 833 l 35 833 l 35 729 m 69 799 l 243 799 l 243 764 l 278 764 l 278 799 l 451 799 l 451 764 l 278 764 l 278 69 l 243 69 l 243 764 l 69 764 l 69 799 z "},"U":{"ha":590,"x_min":0,"x_max":521,"o":"m 0 833 l 35 833 l 35 868 l 139 868 l 139 833 l 174 833 l 174 174 l 347 174 l 347 833 l 382 833 l 382 868 l 486 868 l 486 833 l 521 833 l 521 69 l 486 69 l 486 35 l 451 35 l 451 0 l 69 0 l 69 35 l 35 35 l 35 69 l 0 69 l 0 833 m 139 833 l 35 833 l 35 69 l 69 69 l 69 35 l 451 35 l 451 69 l 486 69 l 486 833 l 382 833 l 382 139 l 139 139 l 139 833 m 69 799 l 104 799 l 104 104 l 417 104 l 417 799 l 451 799 l 451 104 l 417 104 l 417 69 l 104 69 l 104 104 l 69 104 l 69 799 z "},"V":{"ha":590,"x_min":0,"x_max":521,"o":"m 0 833 l 35 833 l 35 868 l 139 868 l 139 833 l 174 833 l 174 278 l 208 278 l 208 243 l 243 243 l 243 208 l 278 208 l 278 243 l 313 243 l 313 278 l 347 278 l 347 833 l 382 833 l 382 868 l 486 868 l 486 833 l 521 833 l 521 208 l 486 208 l 486 174 l 451 174 l 451 139 l 417 139 l 417 104 l 382 104 l 382 69 l 347 69 l 347 35 l 313 35 l 313 0 l 208 0 l 208 35 l 174 35 l 174 69 l 139 69 l 139 104 l 104 104 l 104 139 l 69 139 l 69 174 l 35 174 l 35 208 l 0 208 l 0 833 m 139 833 l 35 833 l 35 208 l 69 208 l 69 174 l 104 174 l 104 139 l 139 139 l 139 104 l 174 104 l 174 69 l 208 69 l 208 35 l 313 35 l 313 69 l 347 69 l 347 104 l 382 104 l 382 139 l 417 139 l 417 174 l 451 174 l 451 208 l 486 208 l 486 833 l 382 833 l 382 278 l 347 278 l 347 243 l 313 243 l 313 208 l 278 208 l 278 174 l 243 174 l 243 208 l 208 208 l 208 243 l 174 243 l 174 278 l 139 278 l 139 833 m 69 799 l 104 799 l 104 243 l 139 243 l 139 208 l 174 208 l 174 174 l 208 174 l 208 139 l 243 139 l 243 104 l 278 104 l 278 139 l 313 139 l 313 174 l 347 174 l 347 208 l 382 208 l 382 243 l 417 243 l 417 799 l 451 799 l 451 243 l 417 243 l 417 208 l 382 208 l 382 174 l 347 174 l 347 139 l 313 139 l 313 104 l 278 104 l 278 69 l 243 69 l 243 104 l 208 104 l 208 139 l 174 139 l 174 174 l 139 174 l 139 208 l 104 208 l 104 243 l 69 243 l 69 799 z "},"W":{"ha":590,"x_min":0,"x_max":521,"o":"m 0 833 l 35 833 l 35 868 l 139 868 l 139 833 l 174 833 l 174 313 l 208 313 l 208 347 l 243 347 l 243 382 l 278 382 l 278 347 l 313 347 l 313 313 l 347 313 l 347 833 l 382 833 l 382 868 l 486 868 l 486 833 l 521 833 l 521 35 l 486 35 l 486 0 l 382 0 l 382 35 l 347 35 l 347 69 l 313 69 l 313 104 l 278 104 l 278 139 l 243 139 l 243 104 l 208 104 l 208 69 l 174 69 l 174 35 l 139 35 l 139 0 l 35 0 l 35 35 l 0 35 l 0 833 m 382 243 l 347 243 l 347 278 l 313 278 l 313 313 l 278 313 l 278 347 l 243 347 l 243 313 l 208 313 l 208 278 l 174 278 l 174 243 l 139 243 l 139 833 l 35 833 l 35 35 l 139 35 l 139 69 l 174 69 l 174 104 l 208 104 l 208 139 l 243 139 l 243 174 l 278 174 l 278 139 l 313 139 l 313 104 l 347 104 l 347 69 l 382 69 l 382 35 l 486 35 l 486 833 l 382 833 l 382 243 m 69 799 l 104 799 l 104 139 l 139 139 l 139 174 l 174 174 l 174 208 l 208 208 l 208 243 l 243 243 l 243 278 l 278 278 l 278 243 l 313 243 l 313 208 l 347 208 l 347 174 l 382 174 l 382 139 l 417 139 l 417 799 l 451 799 l 451 69 l 417 69 l 417 104 l 382 104 l 382 139 l 347 139 l 347 174 l 313 174 l 313 208 l 278 208 l 278 243 l 243 243 l 243 208 l 208 208 l 208 174 l 174 174 l 174 139 l 139 139 l 139 104 l 104 104 l 104 69 l 69 69 l 69 799 z "},"X":{"ha":590,"x_min":0,"x_max":521,"o":"m 0 833 l 35 833 l 35 868 l 139 868 l 139 833 l 174 833 l 174 625 l 208 625 l 208 590 l 243 590 l 243 556 l 278 556 l 278 590 l 313 590 l 313 625 l 347 625 l 347 833 l 382 833 l 382 868 l 486 868 l 486 833 l 521 833 l 521 556 l 486 556 l 486 521 l 451 521 l 451 486 l 417 486 l 417 451 l 382 451 l 382 417 l 417 417 l 417 382 l 451 382 l 451 347 l 486 347 l 486 313 l 521 313 l 521 35 l 486 35 l 486 0 l 382 0 l 382 35 l 347 35 l 347 243 l 313 243 l 313 278 l 278 278 l 278 313 l 243 313 l 243 278 l 208 278 l 208 243 l 174 243 l 174 35 l 139 35 l 139 0 l 35 0 l 35 35 l 0 35 l 0 313 l 35 313 l 35 347 l 69 347 l 69 382 l 104 382 l 104 417 l 139 417 l 139 451 l 104 451 l 104 486 l 69 486 l 69 521 l 35 521 l 35 556 l 0 556 l 0 833 m 347 451 l 382 451 l 382 486 l 417 486 l 417 521 l 451 521 l 451 556 l 486 556 l 486 833 l 382 833 l 382 625 l 347 625 l 347 590 l 313 590 l 313 556 l 278 556 l 278 521 l 243 521 l 243 556 l 208 556 l 208 590 l 174 590 l 174 625 l 139 625 l 139 833 l 35 833 l 35 556 l 69 556 l 69 521 l 104 521 l 104 486 l 139 486 l 139 451 l 174 451 l 174 417 l 139 417 l 139 382 l 104 382 l 104 347 l 69 347 l 69 313 l 35 313 l 35 35 l 139 35 l 139 243 l 174 243 l 174 278 l 208 278 l 208 313 l 243 313 l 243 347 l 278 347 l 278 313 l 313 313 l 313 278 l 347 278 l 347 243 l 382 243 l 382 35 l 486 35 l 486 313 l 451 313 l 451 347 l 417 347 l 417 382 l 382 382 l 382 417 l 347 417 l 347 451 m 69 799 l 104 799 l 104 590 l 139 590 l 139 556 l 174 556 l 174 521 l 208 521 l 208 486 l 243 486 l 243 451 l 278 451 l 278 486 l 313 486 l 313 521 l 347 521 l 347 556 l 382 556 l 382 590 l 417 590 l 417 799 l 451 799 l 451 590 l 417 590 l 417 556 l 382 556 l 382 521 l 347 521 l 347 486 l 313 486 l 313 451 l 278 451 l 278 417 l 313 417 l 313 382 l 347 382 l 347 347 l 382 347 l 382 313 l 417 313 l 417 278 l 451 278 l 451 69 l 417 69 l 417 278 l 382 278 l 382 313 l 347 313 l 347 347 l 313 347 l 313 382 l 278 382 l 278 417 l 243 417 l 243 382 l 208 382 l 208 347 l 174 347 l 174 313 l 139 313 l 139 278 l 104 278 l 104 69 l 69 69 l 69 278 l 104 278 l 104 313 l 139 313 l 139 347 l 174 347 l 174 382 l 208 382 l 208 417 l 243 417 l 243 451 l 208 451 l 208 486 l 174 486 l 174 521 l 139 521 l 139 556 l 104 556 l 104 590 l 69 590 l 69 799 z "},"Y":{"ha":590,"x_min":0,"x_max":521,"o":"m 0 833 l 35 833 l 35 868 l 139 868 l 139 833 l 174 833 l 174 625 l 208 625 l 208 590 l 243 590 l 243 556 l 278 556 l 278 590 l 313 590 l 313 625 l 347 625 l 347 833 l 382 833 l 382 868 l 486 868 l 486 833 l 521 833 l 521 556 l 486 556 l 486 521 l 451 521 l 451 486 l 417 486 l 417 451 l 382 451 l 382 417 l 347 417 l 347 35 l 313 35 l 313 0 l 208 0 l 208 35 l 174 35 l 174 417 l 139 417 l 139 451 l 104 451 l 104 486 l 69 486 l 69 521 l 35 521 l 35 556 l 0 556 l 0 833 m 139 833 l 35 833 l 35 556 l 69 556 l 69 521 l 104 521 l 104 486 l 139 486 l 139 451 l 174 451 l 174 417 l 208 417 l 208 35 l 313 35 l 313 417 l 347 417 l 347 451 l 382 451 l 382 486 l 417 486 l 417 521 l 451 521 l 451 556 l 486 556 l 486 833 l 382 833 l 382 625 l 347 625 l 347 590 l 313 590 l 313 556 l 278 556 l 278 521 l 243 521 l 243 556 l 208 556 l 208 590 l 174 590 l 174 625 l 139 625 l 139 833 m 69 799 l 104 799 l 104 590 l 139 590 l 139 556 l 174 556 l 174 521 l 208 521 l 208 486 l 243 486 l 243 451 l 278 451 l 278 486 l 313 486 l 313 521 l 347 521 l 347 556 l 382 556 l 382 590 l 417 590 l 417 799 l 451 799 l 451 590 l 417 590 l 417 556 l 382 556 l 382 521 l 347 521 l 347 486 l 313 486 l 313 451 l 278 451 l 278 69 l 243 69 l 243 451 l 208 451 l 208 486 l 174 486 l 174 521 l 139 521 l 139 556 l 104 556 l 104 590 l 69 590 l 69 799 z "},"Z":{"ha":590,"x_min":0,"x_max":521,"o":"m 0 833 l 35 833 l 35 868 l 486 868 l 486 833 l 521 833 l 521 556 l 486 556 l 486 521 l 451 521 l 451 486 l 417 486 l 417 451 l 382 451 l 382 417 l 347 417 l 347 382 l 313 382 l 313 347 l 278 347 l 278 313 l 243 313 l 243 278 l 208 278 l 208 243 l 174 243 l 174 174 l 486 174 l 486 139 l 521 139 l 521 35 l 486 35 l 486 0 l 35 0 l 35 35 l 0 35 l 0 313 l 35 313 l 35 347 l 69 347 l 69 382 l 104 382 l 104 417 l 139 417 l 139 451 l 174 451 l 174 486 l 208 486 l 208 521 l 243 521 l 243 556 l 278 556 l 278 590 l 313 590 l 313 625 l 347 625 l 347 694 l 35 694 l 35 729 l 0 729 l 0 833 m 139 243 l 174 243 l 174 278 l 208 278 l 208 313 l 243 313 l 243 347 l 278 347 l 278 382 l 313 382 l 313 417 l 347 417 l 347 451 l 382 451 l 382 486 l 417 486 l 417 521 l 451 521 l 451 556 l 486 556 l 486 833 l 35 833 l 35 729 l 382 729 l 382 625 l 347 625 l 347 590 l 313 590 l 313 556 l 278 556 l 278 521 l 243 521 l 243 486 l 208 486 l 208 451 l 174 451 l 174 417 l 139 417 l 139 382 l 104 382 l 104 347 l 69 347 l 69 313 l 35 313 l 35 35 l 486 35 l 486 139 l 139 139 l 139 243 m 69 278 l 104 278 l 104 313 l 139 313 l 139 347 l 174 347 l 174 382 l 208 382 l 208 417 l 243 417 l 243 451 l 278 451 l 278 486 l 313 486 l 313 521 l 347 521 l 347 556 l 382 556 l 382 590 l 417 590 l 417 764 l 69 764 l 69 799 l 451 799 l 451 590 l 417 590 l 417 556 l 382 556 l 382 521 l 347 521 l 347 486 l 313 486 l 313 451 l 278 451 l 278 417 l 243 417 l 243 382 l 208 382 l 208 347 l 174 347 l 174 313 l 139 313 l 139 278 l 104 278 l 104 104 l 451 104 l 451 69 l 69 69 l 69 278 z "},"[":{"ha":590,"x_min":174,"x_max":521,"o":"m 174 799 l 208 799 l 208 833 l 243 833 l 243 868 l 486 868 l 486 833 l 521 833 l 521 729 l 486 729 l 486 694 l 347 694 l 347 174 l 486 174 l 486 139 l 521 139 l 521 35 l 486 35 l 486 0 l 208 0 l 208 69 l 174 69 l 174 799 m 313 729 l 486 729 l 486 833 l 243 833 l 243 799 l 208 799 l 208 69 l 243 69 l 243 35 l 486 35 l 486 139 l 313 139 l 313 729 m 243 764 l 278 764 l 278 799 l 451 799 l 451 764 l 278 764 l 278 104 l 451 104 l 451 69 l 278 69 l 278 104 l 243 104 l 243 764 z "},"\\":{"ha":590,"x_min":0,"x_max":521,"o":"m 0 833 l 35 833 l 35 868 l 139 868 l 139 833 l 174 833 l 174 625 l 208 625 l 208 590 l 243 590 l 243 556 l 278 556 l 278 521 l 313 521 l 313 486 l 347 486 l 347 451 l 382 451 l 382 417 l 417 417 l 417 382 l 451 382 l 451 347 l 486 347 l 486 313 l 521 313 l 521 35 l 486 35 l 486 0 l 382 0 l 382 35 l 347 35 l 347 243 l 313 243 l 313 278 l 278 278 l 278 313 l 243 313 l 243 347 l 208 347 l 208 382 l 174 382 l 174 417 l 139 417 l 139 451 l 104 451 l 104 486 l 69 486 l 69 521 l 35 521 l 35 556 l 0 556 l 0 833 m 139 833 l 35 833 l 35 556 l 69 556 l 69 521 l 104 521 l 104 486 l 139 486 l 139 451 l 174 451 l 174 417 l 208 417 l 208 382 l 243 382 l 243 347 l 278 347 l 278 313 l 313 313 l 313 278 l 347 278 l 347 243 l 382 243 l 382 35 l 486 35 l 486 313 l 451 313 l 451 347 l 417 347 l 417 382 l 382 382 l 382 417 l 347 417 l 347 451 l 313 451 l 313 486 l 278 486 l 278 521 l 243 521 l 243 556 l 208 556 l 208 590 l 174 590 l 174 625 l 139 625 l 139 833 m 69 799 l 104 799 l 104 590 l 139 590 l 139 556 l 174 556 l 174 521 l 208 521 l 208 486 l 243 486 l 243 451 l 278 451 l 278 417 l 313 417 l 313 382 l 347 382 l 347 347 l 382 347 l 382 313 l 417 313 l 417 278 l 451 278 l 451 69 l 417 69 l 417 278 l 382 278 l 382 313 l 347 313 l 347 347 l 313 347 l 313 382 l 278 382 l 278 417 l 243 417 l 243 451 l 208 451 l 208 486 l 174 486 l 174 521 l 139 521 l 139 556 l 104 556 l 104 590 l 69 590 l 69 799 z "},"]":{"ha":590,"x_min":0,"x_max":347,"o":"m 0 833 l 35 833 l 35 868 l 278 868 l 278 833 l 313 833 l 313 799 l 347 799 l 347 69 l 313 69 l 313 0 l 35 0 l 35 35 l 0 35 l 0 139 l 35 139 l 35 174 l 174 174 l 174 694 l 35 694 l 35 729 l 0 729 l 0 833 m 278 833 l 35 833 l 35 729 l 208 729 l 208 139 l 35 139 l 35 35 l 278 35 l 278 69 l 313 69 l 313 799 l 278 799 l 278 833 m 69 799 l 243 799 l 243 764 l 278 764 l 278 104 l 243 104 l 243 69 l 69 69 l 69 104 l 243 104 l 243 764 l 69 764 l 69 799 z "},"^":{"ha":590,"x_min":0,"x_max":521,"o":"m 0 625 l 35 625 l 35 660 l 69 660 l 69 694 l 104 694 l 104 729 l 139 729 l 139 764 l 174 764 l 174 799 l 208 799 l 208 833 l 243 833 l 243 868 l 278 868 l 278 833 l 313 833 l 313 799 l 347 799 l 347 764 l 382 764 l 382 729 l 417 729 l 417 694 l 451 694 l 451 660 l 486 660 l 486 625 l 521 625 l 521 521 l 486 521 l 486 486 l 382 486 l 382 521 l 347 521 l 347 556 l 313 556 l 313 590 l 278 590 l 278 625 l 243 625 l 243 590 l 208 590 l 208 556 l 174 556 l 174 521 l 139 521 l 139 486 l 35 486 l 35 521 l 0 521 l 0 625 m 278 833 l 243 833 l 243 799 l 208 799 l 208 764 l 174 764 l 174 729 l 139 729 l 139 694 l 104 694 l 104 660 l 69 660 l 69 625 l 35 625 l 35 521 l 139 521 l 139 556 l 174 556 l 174 590 l 208 590 l 208 625 l 243 625 l 243 660 l 278 660 l 278 625 l 313 625 l 313 590 l 347 590 l 347 556 l 382 556 l 382 521 l 486 521 l 486 625 l 451 625 l 451 660 l 417 660 l 417 694 l 382 694 l 382 729 l 347 729 l 347 764 l 313 764 l 313 799 l 278 799 l 278 833 m 69 590 l 104 590 l 104 625 l 139 625 l 139 660 l 174 660 l 174 694 l 208 694 l 208 729 l 243 729 l 243 764 l 278 764 l 278 729 l 313 729 l 313 694 l 347 694 l 347 660 l 382 660 l 382 625 l 417 625 l 417 590 l 451 590 l 451 556 l 417 556 l 417 590 l 382 590 l 382 625 l 347 625 l 347 660 l 313 660 l 313 694 l 278 694 l 278 729 l 243 729 l 243 694 l 208 694 l 208 660 l 174 660 l 174 625 l 139 625 l 139 590 l 104 590 l 104 556 l 69 556 l 69 590 z "},"_":{"ha":590,"x_min":0,"x_max":521,"o":"m 0 139 l 35 139 l 35 174 l 486 174 l 486 139 l 521 139 l 521 35 l 486 35 l 486 0 l 35 0 l 35 35 l 0 35 l 0 139 m 35 35 l 486 35 l 486 139 l 35 139 l 35 35 m 69 104 l 451 104 l 451 69 l 69 69 l 69 104 z "},"`":{"ha":590,"x_min":174,"x_max":417,"o":"m 174 833 l 208 833 l 208 868 l 313 868 l 313 833 l 347 833 l 347 799 l 382 799 l 382 764 l 417 764 l 417 660 l 382 660 l 382 625 l 278 625 l 278 660 l 243 660 l 243 694 l 208 694 l 208 729 l 174 729 l 174 833 m 208 729 l 243 729 l 243 694 l 278 694 l 278 660 l 382 660 l 382 764 l 347 764 l 347 799 l 313 799 l 313 833 l 208 833 l 208 729 m 243 799 l 278 799 l 278 764 l 313 764 l 313 729 l 347 729 l 347 694 l 313 694 l 313 729 l 278 729 l 278 764 l 243 764 l 243 799 z "},"a":{"ha":590,"x_min":0,"x_max":521,"o":"m 0 799 l 35 799 l 35 833 l 69 833 l 69 868 l 451 868 l 451 833 l 486 833 l 486 799 l 521 799 l 521 35 l 486 35 l 486 0 l 382 0 l 382 35 l 347 35 l 347 347 l 174 347 l 174 35 l 139 35 l 139 0 l 35 0 l 35 35 l 0 35 l 0 799 m 451 833 l 69 833 l 69 799 l 35 799 l 35 35 l 139 35 l 139 382 l 382 382 l 382 35 l 486 35 l 486 799 l 451 799 l 451 833 m 69 764 l 104 764 l 104 799 l 417 799 l 417 764 l 451 764 l 451 451 l 417 451 l 417 417 l 451 417 l 451 69 l 417 69 l 417 417 l 104 417 l 104 69 l 69 69 l 69 417 l 104 417 l 104 451 l 69 451 l 69 764 m 104 451 l 417 451 l 417 764 l 104 764 l 104 451 m 139 729 l 382 729 l 382 486 l 139 486 l 139 729 m 174 521 l 347 521 l 347 694 l 174 694 l 174 521 z "},"b":{"ha":590,"x_min":0,"x_max":521,"o":"m 0 833 l 35 833 l 35 868 l 417 868 l 417 833 l 451 833 l 451 799 l 486 799 l 486 764 l 521 764 l 521 451 l 486 451 l 486 417 l 521 417 l 521 104 l 486 104 l 486 69 l 451 69 l 451 35 l 417 35 l 417 0 l 35 0 l 35 35 l 0 35 l 0 833 m 417 833 l 35 833 l 35 35 l 417 35 l 417 69 l 451 69 l 451 104 l 486 104 l 486 417 l 451 417 l 451 451 l 486 451 l 486 764 l 451 764 l 451 799 l 417 799 l 417 833 m 69 799 l 382 799 l 382 764 l 417 764 l 417 729 l 451 729 l 451 486 l 417 486 l 417 451 l 382 451 l 382 417 l 417 417 l 417 382 l 451 382 l 451 139 l 417 139 l 417 104 l 382 104 l 382 69 l 69 69 l 69 417 l 104 417 l 104 451 l 69 451 l 69 799 m 382 764 l 104 764 l 104 451 l 382 451 l 382 486 l 417 486 l 417 729 l 382 729 l 382 764 m 382 417 l 104 417 l 104 104 l 382 104 l 382 139 l 417 139 l 417 382 l 382 382 l 382 417 m 139 729 l 347 729 l 347 694 l 382 694 l 382 521 l 347 521 l 347 486 l 139 486 l 139 729 m 139 382 l 347 382 l 347 347 l 382 347 l 382 174 l 347 174 l 347 139 l 139 139 l 139 382 m 174 521 l 347 521 l 347 694 l 174 694 l 174 521 m 174 174 l 347 174 l 347 347 l 174 347 l 174 174 z "},"c":{"ha":590,"x_min":0,"x_max":521,"o":"m 0 799 l 35 799 l 35 833 l 69 833 l 69 868 l 486 868 l 486 833 l 521 833 l 521 729 l 486 729 l 486 694 l 174 694 l 174 174 l 486 174 l 486 139 l 521 139 l 521 35 l 486 35 l 486 0 l 69 0 l 69 35 l 35 35 l 35 69 l 0 69 l 0 799 m 139 729 l 486 729 l 486 833 l 69 833 l 69 799 l 35 799 l 35 69 l 69 69 l 69 35 l 486 35 l 486 139 l 139 139 l 139 729 m 69 764 l 104 764 l 104 799 l 451 799 l 451 764 l 104 764 l 104 104 l 451 104 l 451 69 l 104 69 l 104 104 l 69 104 l 69 764 z "},"d":{"ha":590,"x_min":0,"x_max":521,"o":"m 0 833 l 35 833 l 35 868 l 417 868 l 417 833 l 451 833 l 451 799 l 486 799 l 486 764 l 521 764 l 521 104 l 486 104 l 486 69 l 451 69 l 451 35 l 417 35 l 417 0 l 35 0 l 35 35 l 0 35 l 0 833 m 417 833 l 35 833 l 35 35 l 417 35 l 417 69 l 451 69 l 451 104 l 486 104 l 486 764 l 451 764 l 451 799 l 417 799 l 417 833 m 69 799 l 382 799 l 382 764 l 417 764 l 417 729 l 451 729 l 451 139 l 417 139 l 417 104 l 382 104 l 382 69 l 69 69 l 69 799 m 382 764 l 104 764 l 104 104 l 382 104 l 382 139 l 417 139 l 417 729 l 382 729 l 382 764 m 139 729 l 347 729 l 347 694 l 382 694 l 382 174 l 347 174 l 347 139 l 139 139 l 139 729 m 174 174 l 347 174 l 347 694 l 174 694 l 174 174 z "},"e":{"ha":590,"x_min":0,"x_max":521,"o":"m 0 799 l 35 799 l 35 833 l 69 833 l 69 868 l 486 868 l 486 833 l 521 833 l 521 729 l 486 729 l 486 694 l 174 694 l 174 521 l 451 521 l 451 486 l 486 486 l 486 382 l 451 382 l 451 347 l 174 347 l 174 174 l 486 174 l 486 139 l 521 139 l 521 35 l 486 35 l 486 0 l 69 0 l 69 35 l 35 35 l 35 69 l 0 69 l 0 799 m 139 729 l 486 729 l 486 833 l 69 833 l 69 799 l 35 799 l 35 69 l 69 69 l 69 35 l 486 35 l 486 139 l 139 139 l 139 382 l 451 382 l 451 486 l 139 486 l 139 729 m 69 764 l 104 764 l 104 799 l 451 799 l 451 764 l 104 764 l 104 451 l 417 451 l 417 417 l 104 417 l 104 104 l 451 104 l 451 69 l 104 69 l 104 104 l 69 104 l 69 417 l 104 417 l 104 451 l 69 451 l 69 764 z "},"f":{"ha":590,"x_min":0,"x_max":521,"o":"m 0 799 l 35 799 l 35 833 l 69 833 l 69 868 l 486 868 l 486 833 l 521 833 l 521 729 l 486 729 l 486 694 l 174 694 l 174 521 l 451 521 l 451 486 l 486 486 l 486 382 l 451 382 l 451 347 l 174 347 l 174 35 l 139 35 l 139 0 l 35 0 l 35 35 l 0 35 l 0 799 m 139 729 l 486 729 l 486 833 l 69 833 l 69 799 l 35 799 l 35 35 l 139 35 l 139 382 l 451 382 l 451 486 l 139 486 l 139 729 m 69 764 l 104 764 l 104 799 l 451 799 l 451 764 l 104 764 l 104 451 l 417 451 l 417 417 l 104 417 l 104 69 l 69 69 l 69 417 l 104 417 l 104 451 l 69 451 l 69 764 z "},"g":{"ha":590,"x_min":0,"x_max":521,"o":"m 0 799 l 35 799 l 35 833 l 69 833 l 69 868 l 486 868 l 486 833 l 521 833 l 521 729 l 486 729 l 486 694 l 174 694 l 174 174 l 347 174 l 347 347 l 278 347 l 278 382 l 243 382 l 243 486 l 278 486 l 278 521 l 451 521 l 451 486 l 486 486 l 486 451 l 521 451 l 521 69 l 486 69 l 486 35 l 451 35 l 451 0 l 69 0 l 69 35 l 35 35 l 35 69 l 0 69 l 0 799 m 139 729 l 486 729 l 486 833 l 69 833 l 69 799 l 35 799 l 35 69 l 69 69 l 69 35 l 451 35 l 451 69 l 486 69 l 486 451 l 451 451 l 451 486 l 278 486 l 278 382 l 382 382 l 382 139 l 139 139 l 139 729 m 69 764 l 104 764 l 104 799 l 451 799 l 451 764 l 104 764 l 104 104 l 417 104 l 417 417 l 313 417 l 313 451 l 417 451 l 417 417 l 451 417 l 451 104 l 417 104 l 417 69 l 104 69 l 104 104 l 69 104 l 69 764 z "},"h":{"ha":590,"x_min":0,"x_max":521,"o":"m 0 833 l 35 833 l 35 868 l 139 868 l 139 833 l 174 833 l 174 521 l 347 521 l 347 833 l 382 833 l 382 868 l 486 868 l 486 833 l 521 833 l 521 35 l 486 35 l 486 0 l 382 0 l 382 35 l 347 35 l 347 347 l 174 347 l 174 35 l 139 35 l 139 0 l 35 0 l 35 35 l 0 35 l 0 833 m 139 833 l 35 833 l 35 35 l 139 35 l 139 382 l 382 382 l 382 35 l 486 35 l 486 833 l 382 833 l 382 486 l 139 486 l 139 833 m 69 799 l 104 799 l 104 451 l 417 451 l 417 799 l 451 799 l 451 451 l 417 451 l 417 417 l 451 417 l 451 69 l 417 69 l 417 417 l 104 417 l 104 69 l 69 69 l 69 417 l 104 417 l 104 451 l 69 451 l 69 799 z "},"i":{"ha":590,"x_min":0,"x_max":521,"o":"m 0 833 l 35 833 l 35 868 l 486 868 l 486 833 l 521 833 l 521 729 l 486 729 l 486 694 l 347 694 l 347 174 l 486 174 l 486 139 l 521 139 l 521 35 l 486 35 l 486 0 l 35 0 l 35 35 l 0 35 l 0 139 l 35 139 l 35 174 l 174 174 l 174 694 l 35 694 l 35 729 l 0 729 l 0 833 m 313 729 l 486 729 l 486 833 l 35 833 l 35 729 l 208 729 l 208 139 l 35 139 l 35 35 l 486 35 l 486 139 l 313 139 l 313 729 m 69 799 l 243 799 l 243 764 l 278 764 l 278 799 l 451 799 l 451 764 l 278 764 l 278 104 l 451 104 l 451 69 l 278 69 l 278 104 l 243 104 l 243 69 l 69 69 l 69 104 l 243 104 l 243 764 l 69 764 l 69 799 z "},"j":{"ha":590,"x_min":0,"x_max":521,"o":"m 0 833 l 35 833 l 35 868 l 451 868 l 451 833 l 486 833 l 486 799 l 521 799 l 521 69 l 486 69 l 486 35 l 451 35 l 451 0 l 69 0 l 69 35 l 35 35 l 35 69 l 0 69 l 0 417 l 35 417 l 35 451 l 139 451 l 139 417 l 174 417 l 174 174 l 347 174 l 347 694 l 35 694 l 35 729 l 0 729 l 0 833 m 451 833 l 35 833 l 35 729 l 382 729 l 382 139 l 139 139 l 139 417 l 35 417 l 35 69 l 69 69 l 69 35 l 451 35 l 451 69 l 486 69 l 486 799 l 451 799 l 451 833 m 69 799 l 417 799 l 417 764 l 451 764 l 451 104 l 417 104 l 417 69 l 104 69 l 104 104 l 69 104 l 69 382 l 104 382 l 104 104 l 417 104 l 417 764 l 69 764 l 69 799 z "},"k":{"ha":590,"x_min":0,"x_max":521,"o":"m 0 833 l 35 833 l 35 868 l 139 868 l 139 833 l 174 833 l 174 521 l 243 521 l 243 556 l 278 556 l 278 590 l 313 590 l 313 625 l 347 625 l 347 833 l 382 833 l 382 868 l 486 868 l 486 833 l 521 833 l 521 556 l 486 556 l 486 521 l 451 521 l 451 486 l 417 486 l 417 451 l 382 451 l 382 417 l 417 417 l 417 382 l 451 382 l 451 347 l 486 347 l 486 313 l 521 313 l 521 35 l 486 35 l 486 0 l 382 0 l 382 35 l 347 35 l 347 243 l 313 243 l 313 278 l 278 278 l 278 313 l 243 313 l 243 347 l 174 347 l 174 35 l 139 35 l 139 0 l 35 0 l 35 35 l 0 35 l 0 833 m 347 451 l 382 451 l 382 486 l 417 486 l 417 521 l 451 521 l 451 556 l 486 556 l 486 833 l 382 833 l 382 625 l 347 625 l 347 590 l 313 590 l 313 556 l 278 556 l 278 521 l 243 521 l 243 486 l 139 486 l 139 833 l 35 833 l 35 35 l 139 35 l 139 382 l 243 382 l 243 347 l 278 347 l 278 313 l 313 313 l 313 278 l 347 278 l 347 243 l 382 243 l 382 35 l 486 35 l 486 313 l 451 313 l 451 347 l 417 347 l 417 382 l 382 382 l 382 417 l 347 417 l 347 451 m 69 799 l 104 799 l 104 451 l 278 451 l 278 486 l 313 486 l 313 521 l 347 521 l 347 556 l 382 556 l 382 590 l 417 590 l 417 799 l 451 799 l 451 590 l 417 590 l 417 556 l 382 556 l 382 521 l 347 521 l 347 486 l 313 486 l 313 451 l 278 451 l 278 417 l 313 417 l 313 382 l 347 382 l 347 347 l 382 347 l 382 313 l 417 313 l 417 278 l 451 278 l 451 69 l 417 69 l 417 278 l 382 278 l 382 313 l 347 313 l 347 347 l 313 347 l 313 382 l 278 382 l 278 417 l 104 417 l 104 69 l 69 69 l 69 417 l 104 417 l 104 451 l 69 451 l 69 799 z "},"l":{"ha":590,"x_min":0,"x_max":521,"o":"m 0 833 l 35 833 l 35 868 l 139 868 l 139 833 l 174 833 l 174 174 l 486 174 l 486 139 l 521 139 l 521 35 l 486 35 l 486 0 l 69 0 l 69 35 l 35 35 l 35 69 l 0 69 l 0 833 m 139 833 l 35 833 l 35 69 l 69 69 l 69 35 l 486 35 l 486 139 l 139 139 l 139 833 m 69 799 l 104 799 l 104 104 l 451 104 l 451 69 l 104 69 l 104 104 l 69 104 l 69 799 z "},"m":{"ha":590,"x_min":0,"x_max":521,"o":"m 0 833 l 35 833 l 35 868 l 139 868 l 139 833 l 174 833 l 174 625 l 208 625 l 208 590 l 243 590 l 243 556 l 278 556 l 278 590 l 313 590 l 313 625 l 347 625 l 347 833 l 382 833 l 382 868 l 486 868 l 486 833 l 521 833 l 521 35 l 486 35 l 486 0 l 382 0 l 382 35 l 347 35 l 347 382 l 313 382 l 313 347 l 278 347 l 278 313 l 243 313 l 243 347 l 208 347 l 208 382 l 174 382 l 174 35 l 139 35 l 139 0 l 35 0 l 35 35 l 0 35 l 0 833 m 35 35 l 139 35 l 139 451 l 174 451 l 174 417 l 208 417 l 208 382 l 243 382 l 243 347 l 278 347 l 278 382 l 313 382 l 313 417 l 347 417 l 347 451 l 382 451 l 382 35 l 486 35 l 486 833 l 382 833 l 382 625 l 347 625 l 347 590 l 313 590 l 313 556 l 278 556 l 278 521 l 243 521 l 243 556 l 208 556 l 208 590 l 174 590 l 174 625 l 139 625 l 139 833 l 35 833 l 35 35 m 69 799 l 104 799 l 104 590 l 139 590 l 139 556 l 174 556 l 174 521 l 208 521 l 208 486 l 243 486 l 243 451 l 278 451 l 278 486 l 313 486 l 313 521 l 347 521 l 347 556 l 382 556 l 382 590 l 417 590 l 417 799 l 451 799 l 451 69 l 417 69 l 417 556 l 382 556 l 382 521 l 347 521 l 347 486 l 313 486 l 313 451 l 278 451 l 278 417 l 243 417 l 243 451 l 208 451 l 208 486 l 174 486 l 174 521 l 139 521 l 139 556 l 104 556 l 104 69 l 69 69 l 69 799 z "},"n":{"ha":590,"x_min":0,"x_max":521,"o":"m 0 833 l 35 833 l 35 868 l 139 868 l 139 833 l 174 833 l 174 625 l 208 625 l 208 590 l 243 590 l 243 556 l 278 556 l 278 521 l 313 521 l 313 486 l 347 486 l 347 833 l 382 833 l 382 868 l 486 868 l 486 833 l 521 833 l 521 35 l 486 35 l 486 0 l 382 0 l 382 35 l 347 35 l 347 243 l 313 243 l 313 278 l 278 278 l 278 313 l 243 313 l 243 347 l 208 347 l 208 382 l 174 382 l 174 35 l 139 35 l 139 0 l 35 0 l 35 35 l 0 35 l 0 833 m 35 35 l 139 35 l 139 451 l 174 451 l 174 417 l 208 417 l 208 382 l 243 382 l 243 347 l 278 347 l 278 313 l 313 313 l 313 278 l 347 278 l 347 243 l 382 243 l 382 35 l 486 35 l 486 833 l 382 833 l 382 417 l 347 417 l 347 451 l 313 451 l 313 486 l 278 486 l 278 521 l 243 521 l 243 556 l 208 556 l 208 590 l 174 590 l 174 625 l 139 625 l 139 833 l 35 833 l 35 35 m 69 799 l 104 799 l 104 590 l 139 590 l 139 556 l 174 556 l 174 521 l 208 521 l 208 486 l 243 486 l 243 451 l 278 451 l 278 417 l 313 417 l 313 382 l 347 382 l 347 347 l 382 347 l 382 313 l 417 313 l 417 799 l 451 799 l 451 69 l 417 69 l 417 278 l 382 278 l 382 313 l 347 313 l 347 347 l 313 347 l 313 382 l 278 382 l 278 417 l 243 417 l 243 451 l 208 451 l 208 486 l 174 486 l 174 521 l 139 521 l 139 556 l 104 556 l 104 69 l 69 69 l 69 799 z "},"o":{"ha":590,"x_min":0,"x_max":521,"o":"m 0 799 l 35 799 l 35 833 l 69 833 l 69 868 l 451 868 l 451 833 l 486 833 l 486 799 l 521 799 l 521 69 l 486 69 l 486 35 l 451 35 l 451 0 l 69 0 l 69 35 l 35 35 l 35 69 l 0 69 l 0 799 m 451 833 l 69 833 l 69 799 l 35 799 l 35 69 l 69 69 l 69 35 l 451 35 l 451 69 l 486 69 l 486 799 l 451 799 l 451 833 m 69 764 l 104 764 l 104 799 l 417 799 l 417 764 l 451 764 l 451 104 l 417 104 l 417 69 l 104 69 l 104 104 l 69 104 l 69 764 m 104 104 l 417 104 l 417 764 l 104 764 l 104 104 m 139 729 l 382 729 l 382 139 l 139 139 l 139 729 m 174 174 l 347 174 l 347 694 l 174 694 l 174 174 z "},"p":{"ha":590,"x_min":0,"x_max":521,"o":"m 0 799 l 35 799 l 35 833 l 69 833 l 69 868 l 451 868 l 451 833 l 486 833 l 486 799 l 521 799 l 521 417 l 486 417 l 486 382 l 451 382 l 451 347 l 174 347 l 174 35 l 139 35 l 139 0 l 35 0 l 35 35 l 0 35 l 0 799 m 451 833 l 69 833 l 69 799 l 35 799 l 35 35 l 139 35 l 139 382 l 451 382 l 451 417 l 486 417 l 486 799 l 451 799 l 451 833 m 69 764 l 104 764 l 104 799 l 417 799 l 417 764 l 451 764 l 451 451 l 417 451 l 417 417 l 104 417 l 104 69 l 69 69 l 69 417 l 104 417 l 104 451 l 69 451 l 69 764 m 104 451 l 417 451 l 417 764 l 104 764 l 104 451 m 139 729 l 382 729 l 382 486 l 139 486 l 139 729 m 174 521 l 347 521 l 347 694 l 174 694 l 174 521 z "},"q":{"ha":590,"x_min":0,"x_max":521,"o":"m 0 799 l 35 799 l 35 833 l 69 833 l 69 868 l 451 868 l 451 833 l 486 833 l 486 799 l 521 799 l 521 174 l 486 174 l 486 139 l 451 139 l 451 104 l 417 104 l 417 69 l 382 69 l 382 35 l 347 35 l 347 0 l 69 0 l 69 35 l 35 35 l 35 69 l 0 69 l 0 799 m 451 833 l 69 833 l 69 799 l 35 799 l 35 69 l 69 69 l 69 35 l 347 35 l 347 69 l 382 69 l 382 139 l 451 139 l 451 174 l 486 174 l 486 799 l 451 799 l 451 833 m 69 764 l 104 764 l 104 799 l 417 799 l 417 764 l 451 764 l 451 208 l 417 208 l 417 174 l 347 174 l 347 104 l 313 104 l 313 69 l 104 69 l 104 104 l 69 104 l 69 764 m 104 104 l 313 104 l 313 174 l 347 174 l 347 208 l 417 208 l 417 764 l 104 764 l 104 104 m 139 729 l 382 729 l 382 243 l 313 243 l 313 208 l 278 208 l 278 139 l 139 139 l 139 729 m 174 174 l 243 174 l 243 208 l 278 208 l 278 243 l 313 243 l 313 278 l 347 278 l 347 694 l 174 694 l 174 174 z "},"r":{"ha":590,"x_min":0,"x_max":521,"o":"m 0 799 l 35 799 l 35 833 l 69 833 l 69 868 l 451 868 l 451 833 l 486 833 l 486 799 l 521 799 l 521 417 l 486 417 l 486 382 l 451 382 l 451 347 l 486 347 l 486 313 l 521 313 l 521 35 l 486 35 l 486 0 l 382 0 l 382 35 l 347 35 l 347 243 l 313 243 l 313 278 l 278 278 l 278 313 l 243 313 l 243 347 l 174 347 l 174 35 l 139 35 l 139 0 l 35 0 l 35 35 l 0 35 l 0 799 m 451 833 l 69 833 l 69 799 l 35 799 l 35 35 l 139 35 l 139 382 l 243 382 l 243 347 l 278 347 l 278 313 l 313 313 l 313 278 l 347 278 l 347 243 l 382 243 l 382 35 l 486 35 l 486 313 l 451 313 l 451 347 l 417 347 l 417 382 l 451 382 l 451 417 l 486 417 l 486 799 l 451 799 l 451 833 m 69 764 l 104 764 l 104 799 l 417 799 l 417 764 l 451 764 l 451 451 l 417 451 l 417 417 l 313 417 l 313 382 l 347 382 l 347 347 l 382 347 l 382 313 l 417 313 l 417 278 l 451 278 l 451 69 l 417 69 l 417 278 l 382 278 l 382 313 l 347 313 l 347 347 l 313 347 l 313 382 l 278 382 l 278 417 l 104 417 l 104 69 l 69 69 l 69 417 l 104 417 l 104 451 l 69 451 l 69 764 m 104 451 l 417 451 l 417 764 l 104 764 l 104 451 m 139 729 l 382 729 l 382 486 l 139 486 l 139 729 m 174 521 l 347 521 l 347 694 l 174 694 l 174 521 z "},"s":{"ha":590,"x_min":0,"x_max":521,"o":"m 0 799 l 35 799 l 35 833 l 69 833 l 69 868 l 486 868 l 486 833 l 521 833 l 521 729 l 486 729 l 486 694 l 174 694 l 174 521 l 451 521 l 451 486 l 486 486 l 486 451 l 521 451 l 521 69 l 486 69 l 486 35 l 451 35 l 451 0 l 35 0 l 35 35 l 0 35 l 0 139 l 35 139 l 35 174 l 347 174 l 347 347 l 69 347 l 69 382 l 35 382 l 35 417 l 0 417 l 0 799 m 139 729 l 486 729 l 486 833 l 69 833 l 69 799 l 35 799 l 35 417 l 69 417 l 69 382 l 382 382 l 382 139 l 35 139 l 35 35 l 451 35 l 451 69 l 486 69 l 486 451 l 451 451 l 451 486 l 139 486 l 139 729 m 69 764 l 104 764 l 104 799 l 451 799 l 451 764 l 104 764 l 104 451 l 417 451 l 417 417 l 451 417 l 451 104 l 417 104 l 417 69 l 69 69 l 69 104 l 417 104 l 417 417 l 104 417 l 104 451 l 69 451 l 69 764 z "},"t":{"ha":590,"x_min":0,"x_max":521,"o":"m 0 833 l 35 833 l 35 868 l 486 868 l 486 833 l 521 833 l 521 729 l 486 729 l 486 694 l 347 694 l 347 35 l 313 35 l 313 0 l 208 0 l 208 35 l 174 35 l 174 694 l 35 694 l 35 729 l 0 729 l 0 833 m 35 729 l 208 729 l 208 35 l 313 35 l 313 729 l 486 729 l 486 833 l 35 833 l 35 729 m 69 799 l 243 799 l 243 764 l 278 764 l 278 799 l 451 799 l 451 764 l 278 764 l 278 69 l 243 69 l 243 764 l 69 764 l 69 799 z "},"u":{"ha":590,"x_min":0,"x_max":521,"o":"m 0 833 l 35 833 l 35 868 l 139 868 l 139 833 l 174 833 l 174 174 l 347 174 l 347 833 l 382 833 l 382 868 l 486 868 l 486 833 l 521 833 l 521 69 l 486 69 l 486 35 l 451 35 l 451 0 l 69 0 l 69 35 l 35 35 l 35 69 l 0 69 l 0 833 m 139 833 l 35 833 l 35 69 l 69 69 l 69 35 l 451 35 l 451 69 l 486 69 l 486 833 l 382 833 l 382 139 l 139 139 l 139 833 m 69 799 l 104 799 l 104 104 l 417 104 l 417 799 l 451 799 l 451 104 l 417 104 l 417 69 l 104 69 l 104 104 l 69 104 l 69 799 z "},"v":{"ha":590,"x_min":0,"x_max":521,"o":"m 0 833 l 35 833 l 35 868 l 139 868 l 139 833 l 174 833 l 174 278 l 208 278 l 208 243 l 243 243 l 243 208 l 278 208 l 278 243 l 313 243 l 313 278 l 347 278 l 347 833 l 382 833 l 382 868 l 486 868 l 486 833 l 521 833 l 521 208 l 486 208 l 486 174 l 451 174 l 451 139 l 417 139 l 417 104 l 382 104 l 382 69 l 347 69 l 347 35 l 313 35 l 313 0 l 208 0 l 208 35 l 174 35 l 174 69 l 139 69 l 139 104 l 104 104 l 104 139 l 69 139 l 69 174 l 35 174 l 35 208 l 0 208 l 0 833 m 139 833 l 35 833 l 35 208 l 69 208 l 69 174 l 104 174 l 104 139 l 139 139 l 139 104 l 174 104 l 174 69 l 208 69 l 208 35 l 313 35 l 313 69 l 347 69 l 347 104 l 382 104 l 382 139 l 417 139 l 417 174 l 451 174 l 451 208 l 486 208 l 486 833 l 382 833 l 382 278 l 347 278 l 347 243 l 313 243 l 313 208 l 278 208 l 278 174 l 243 174 l 243 208 l 208 208 l 208 243 l 174 243 l 174 278 l 139 278 l 139 833 m 69 799 l 104 799 l 104 243 l 139 243 l 139 208 l 174 208 l 174 174 l 208 174 l 208 139 l 243 139 l 243 104 l 278 104 l 278 139 l 313 139 l 313 174 l 347 174 l 347 208 l 382 208 l 382 243 l 417 243 l 417 799 l 451 799 l 451 243 l 417 243 l 417 208 l 382 208 l 382 174 l 347 174 l 347 139 l 313 139 l 313 104 l 278 104 l 278 69 l 243 69 l 243 104 l 208 104 l 208 139 l 174 139 l 174 174 l 139 174 l 139 208 l 104 208 l 104 243 l 69 243 l 69 799 z "},"w":{"ha":590,"x_min":0,"x_max":521,"o":"m 0 833 l 35 833 l 35 868 l 139 868 l 139 833 l 174 833 l 174 313 l 208 313 l 208 347 l 243 347 l 243 382 l 278 382 l 278 347 l 313 347 l 313 313 l 347 313 l 347 833 l 382 833 l 382 868 l 486 868 l 486 833 l 521 833 l 521 35 l 486 35 l 486 0 l 382 0 l 382 35 l 347 35 l 347 69 l 313 69 l 313 104 l 278 104 l 278 139 l 243 139 l 243 104 l 208 104 l 208 69 l 174 69 l 174 35 l 139 35 l 139 0 l 35 0 l 35 35 l 0 35 l 0 833 m 382 243 l 347 243 l 347 278 l 313 278 l 313 313 l 278 313 l 278 347 l 243 347 l 243 313 l 208 313 l 208 278 l 174 278 l 174 243 l 139 243 l 139 833 l 35 833 l 35 35 l 139 35 l 139 69 l 174 69 l 174 104 l 208 104 l 208 139 l 243 139 l 243 174 l 278 174 l 278 139 l 313 139 l 313 104 l 347 104 l 347 69 l 382 69 l 382 35 l 486 35 l 486 833 l 382 833 l 382 243 m 69 799 l 104 799 l 104 139 l 139 139 l 139 174 l 174 174 l 174 208 l 208 208 l 208 243 l 243 243 l 243 278 l 278 278 l 278 243 l 313 243 l 313 208 l 347 208 l 347 174 l 382 174 l 382 139 l 417 139 l 417 799 l 451 799 l 451 69 l 417 69 l 417 104 l 382 104 l 382 139 l 347 139 l 347 174 l 313 174 l 313 208 l 278 208 l 278 243 l 243 243 l 243 208 l 208 208 l 208 174 l 174 174 l 174 139 l 139 139 l 139 104 l 104 104 l 104 69 l 69 69 l 69 799 z "},"x":{"ha":590,"x_min":0,"x_max":521,"o":"m 0 833 l 35 833 l 35 868 l 139 868 l 139 833 l 174 833 l 174 625 l 208 625 l 208 590 l 243 590 l 243 556 l 278 556 l 278 590 l 313 590 l 313 625 l 347 625 l 347 833 l 382 833 l 382 868 l 486 868 l 486 833 l 521 833 l 521 556 l 486 556 l 486 521 l 451 521 l 451 486 l 417 486 l 417 451 l 382 451 l 382 417 l 417 417 l 417 382 l 451 382 l 451 347 l 486 347 l 486 313 l 521 313 l 521 35 l 486 35 l 486 0 l 382 0 l 382 35 l 347 35 l 347 243 l 313 243 l 313 278 l 278 278 l 278 313 l 243 313 l 243 278 l 208 278 l 208 243 l 174 243 l 174 35 l 139 35 l 139 0 l 35 0 l 35 35 l 0 35 l 0 313 l 35 313 l 35 347 l 69 347 l 69 382 l 104 382 l 104 417 l 139 417 l 139 451 l 104 451 l 104 486 l 69 486 l 69 521 l 35 521 l 35 556 l 0 556 l 0 833 m 347 451 l 382 451 l 382 486 l 417 486 l 417 521 l 451 521 l 451 556 l 486 556 l 486 833 l 382 833 l 382 625 l 347 625 l 347 590 l 313 590 l 313 556 l 278 556 l 278 521 l 243 521 l 243 556 l 208 556 l 208 590 l 174 590 l 174 625 l 139 625 l 139 833 l 35 833 l 35 556 l 69 556 l 69 521 l 104 521 l 104 486 l 139 486 l 139 451 l 174 451 l 174 417 l 139 417 l 139 382 l 104 382 l 104 347 l 69 347 l 69 313 l 35 313 l 35 35 l 139 35 l 139 243 l 174 243 l 174 278 l 208 278 l 208 313 l 243 313 l 243 347 l 278 347 l 278 313 l 313 313 l 313 278 l 347 278 l 347 243 l 382 243 l 382 35 l 486 35 l 486 313 l 451 313 l 451 347 l 417 347 l 417 382 l 382 382 l 382 417 l 347 417 l 347 451 m 69 799 l 104 799 l 104 590 l 139 590 l 139 556 l 174 556 l 174 521 l 208 521 l 208 486 l 243 486 l 243 451 l 278 451 l 278 486 l 313 486 l 313 521 l 347 521 l 347 556 l 382 556 l 382 590 l 417 590 l 417 799 l 451 799 l 451 590 l 417 590 l 417 556 l 382 556 l 382 521 l 347 521 l 347 486 l 313 486 l 313 451 l 278 451 l 278 417 l 313 417 l 313 382 l 347 382 l 347 347 l 382 347 l 382 313 l 417 313 l 417 278 l 451 278 l 451 69 l 417 69 l 417 278 l 382 278 l 382 313 l 347 313 l 347 347 l 313 347 l 313 382 l 278 382 l 278 417 l 243 417 l 243 382 l 208 382 l 208 347 l 174 347 l 174 313 l 139 313 l 139 278 l 104 278 l 104 69 l 69 69 l 69 278 l 104 278 l 104 313 l 139 313 l 139 347 l 174 347 l 174 382 l 208 382 l 208 417 l 243 417 l 243 451 l 208 451 l 208 486 l 174 486 l 174 521 l 139 521 l 139 556 l 104 556 l 104 590 l 69 590 l 69 799 z "},"y":{"ha":590,"x_min":0,"x_max":521,"o":"m 0 833 l 35 833 l 35 868 l 139 868 l 139 833 l 174 833 l 174 625 l 208 625 l 208 590 l 243 590 l 243 556 l 278 556 l 278 590 l 313 590 l 313 625 l 347 625 l 347 833 l 382 833 l 382 868 l 486 868 l 486 833 l 521 833 l 521 556 l 486 556 l 486 521 l 451 521 l 451 486 l 417 486 l 417 451 l 382 451 l 382 417 l 347 417 l 347 35 l 313 35 l 313 0 l 208 0 l 208 35 l 174 35 l 174 417 l 139 417 l 139 451 l 104 451 l 104 486 l 69 486 l 69 521 l 35 521 l 35 556 l 0 556 l 0 833 m 139 833 l 35 833 l 35 556 l 69 556 l 69 521 l 104 521 l 104 486 l 139 486 l 139 451 l 174 451 l 174 417 l 208 417 l 208 35 l 313 35 l 313 417 l 347 417 l 347 451 l 382 451 l 382 486 l 417 486 l 417 521 l 451 521 l 451 556 l 486 556 l 486 833 l 382 833 l 382 625 l 347 625 l 347 590 l 313 590 l 313 556 l 278 556 l 278 521 l 243 521 l 243 556 l 208 556 l 208 590 l 174 590 l 174 625 l 139 625 l 139 833 m 69 799 l 104 799 l 104 590 l 139 590 l 139 556 l 174 556 l 174 521 l 208 521 l 208 486 l 243 486 l 243 451 l 278 451 l 278 486 l 313 486 l 313 521 l 347 521 l 347 556 l 382 556 l 382 590 l 417 590 l 417 799 l 451 799 l 451 590 l 417 590 l 417 556 l 382 556 l 382 521 l 347 521 l 347 486 l 313 486 l 313 451 l 278 451 l 278 69 l 243 69 l 243 451 l 208 451 l 208 486 l 174 486 l 174 521 l 139 521 l 139 556 l 104 556 l 104 590 l 69 590 l 69 799 z "},"z":{"ha":590,"x_min":0,"x_max":521,"o":"m 0 833 l 35 833 l 35 868 l 486 868 l 486 833 l 521 833 l 521 556 l 486 556 l 486 521 l 451 521 l 451 486 l 417 486 l 417 451 l 382 451 l 382 417 l 347 417 l 347 382 l 313 382 l 313 347 l 278 347 l 278 313 l 243 313 l 243 278 l 208 278 l 208 243 l 174 243 l 174 174 l 486 174 l 486 139 l 521 139 l 521 35 l 486 35 l 486 0 l 35 0 l 35 35 l 0 35 l 0 313 l 35 313 l 35 347 l 69 347 l 69 382 l 104 382 l 104 417 l 139 417 l 139 451 l 174 451 l 174 486 l 208 486 l 208 521 l 243 521 l 243 556 l 278 556 l 278 590 l 313 590 l 313 625 l 347 625 l 347 694 l 35 694 l 35 729 l 0 729 l 0 833 m 139 243 l 174 243 l 174 278 l 208 278 l 208 313 l 243 313 l 243 347 l 278 347 l 278 382 l 313 382 l 313 417 l 347 417 l 347 451 l 382 451 l 382 486 l 417 486 l 417 521 l 451 521 l 451 556 l 486 556 l 486 833 l 35 833 l 35 729 l 382 729 l 382 625 l 347 625 l 347 590 l 313 590 l 313 556 l 278 556 l 278 521 l 243 521 l 243 486 l 208 486 l 208 451 l 174 451 l 174 417 l 139 417 l 139 382 l 104 382 l 104 347 l 69 347 l 69 313 l 35 313 l 35 35 l 486 35 l 486 139 l 139 139 l 139 243 m 69 278 l 104 278 l 104 313 l 139 313 l 139 347 l 174 347 l 174 382 l 208 382 l 208 417 l 243 417 l 243 451 l 278 451 l 278 486 l 313 486 l 313 521 l 347 521 l 347 556 l 382 556 l 382 590 l 417 590 l 417 764 l 69 764 l 69 799 l 451 799 l 451 590 l 417 590 l 417 556 l 382 556 l 382 521 l 347 521 l 347 486 l 313 486 l 313 451 l 278 451 l 278 417 l 243 417 l 243 382 l 208 382 l 208 347 l 174 347 l 174 313 l 139 313 l 139 278 l 104 278 l 104 104 l 451 104 l 451 69 l 69 69 l 69 278 z "},"{":{"ha":590,"x_min":69,"x_max":521,"o":"m 69 486 l 104 486 l 104 521 l 174 521 l 174 764 l 208 764 l 208 799 l 243 799 l 243 833 l 278 833 l 278 868 l 486 868 l 486 833 l 521 833 l 521 729 l 486 729 l 486 694 l 347 694 l 347 174 l 486 174 l 486 139 l 521 139 l 521 35 l 486 35 l 486 0 l 278 0 l 278 35 l 243 35 l 243 69 l 208 69 l 208 104 l 174 104 l 174 347 l 104 347 l 104 382 l 69 382 l 69 486 m 313 694 l 347 694 l 347 729 l 486 729 l 486 833 l 278 833 l 278 799 l 243 799 l 243 764 l 208 764 l 208 486 l 104 486 l 104 382 l 208 382 l 208 104 l 243 104 l 243 69 l 278 69 l 278 35 l 486 35 l 486 139 l 347 139 l 347 174 l 313 174 l 313 694 m 139 451 l 243 451 l 243 729 l 278 729 l 278 764 l 313 764 l 313 799 l 451 799 l 451 764 l 313 764 l 313 729 l 278 729 l 278 451 l 243 451 l 243 417 l 278 417 l 278 139 l 313 139 l 313 104 l 451 104 l 451 69 l 313 69 l 313 104 l 278 104 l 278 139 l 243 139 l 243 417 l 139 417 l 139 451 z "},"|":{"ha":590,"x_min":174,"x_max":347,"o":"m 174 833 l 208 833 l 208 868 l 313 868 l 313 833 l 347 833 l 347 35 l 313 35 l 313 0 l 208 0 l 208 35 l 174 35 l 174 833 m 313 833 l 208 833 l 208 35 l 313 35 l 313 833 m 243 799 l 278 799 l 278 69 l 243 69 l 243 799 z "},"}":{"ha":590,"x_min":0,"x_max":451,"o":"m 0 833 l 35 833 l 35 868 l 243 868 l 243 833 l 278 833 l 278 799 l 313 799 l 313 764 l 347 764 l 347 521 l 417 521 l 417 486 l 451 486 l 451 382 l 417 382 l 417 347 l 347 347 l 347 104 l 313 104 l 313 69 l 278 69 l 278 35 l 243 35 l 243 0 l 35 0 l 35 35 l 0 35 l 0 139 l 35 139 l 35 174 l 174 174 l 174 694 l 35 694 l 35 729 l 0 729 l 0 833 m 243 833 l 35 833 l 35 729 l 174 729 l 174 694 l 208 694 l 208 174 l 174 174 l 174 139 l 35 139 l 35 35 l 243 35 l 243 69 l 278 69 l 278 104 l 313 104 l 313 382 l 417 382 l 417 486 l 313 486 l 313 764 l 278 764 l 278 799 l 243 799 l 243 833 m 69 799 l 208 799 l 208 764 l 243 764 l 243 729 l 278 729 l 278 451 l 382 451 l 382 417 l 278 417 l 278 139 l 243 139 l 243 104 l 208 104 l 208 69 l 69 69 l 69 104 l 208 104 l 208 139 l 243 139 l 243 417 l 278 417 l 278 451 l 243 451 l 243 729 l 208 729 l 208 764 l 69 764 l 69 799 z "},"~":{"ha":590,"x_min":0,"x_max":486,"o":"m 0 729 l 35 729 l 35 764 l 69 764 l 69 799 l 104 799 l 104 833 l 139 833 l 139 868 l 243 868 l 243 833 l 278 833 l 278 799 l 313 799 l 313 833 l 347 833 l 347 868 l 451 868 l 451 833 l 486 833 l 486 729 l 451 729 l 451 694 l 417 694 l 417 660 l 382 660 l 382 625 l 347 625 l 347 590 l 243 590 l 243 625 l 208 625 l 208 660 l 174 660 l 174 625 l 139 625 l 139 590 l 35 590 l 35 625 l 0 625 l 0 729 m 139 799 l 104 799 l 104 764 l 69 764 l 69 729 l 35 729 l 35 625 l 139 625 l 139 660 l 174 660 l 174 694 l 208 694 l 208 660 l 243 660 l 243 625 l 347 625 l 347 660 l 382 660 l 382 694 l 417 694 l 417 729 l 451 729 l 451 833 l 347 833 l 347 799 l 313 799 l 313 764 l 278 764 l 278 799 l 243 799 l 243 833 l 139 833 l 139 799 m 69 694 l 104 694 l 104 729 l 139 729 l 139 764 l 174 764 l 174 799 l 208 799 l 208 764 l 243 764 l 243 729 l 278 729 l 278 694 l 313 694 l 313 729 l 347 729 l 347 764 l 382 764 l 382 799 l 417 799 l 417 764 l 382 764 l 382 729 l 347 729 l 347 694 l 313 694 l 313 660 l 278 660 l 278 694 l 243 694 l 243 729 l 208 729 l 208 764 l 174 764 l 174 729 l 139 729 l 139 694 l 104 694 l 104 660 l 69 660 l 69 694 z "},"!":{"ha":590,"x_min":174,"x_max":347,"o":"m 174 833 l 208 833 l 208 868 l 313 868 l 313 833 l 347 833 l 347 243 l 313 243 l 313 208 l 208 208 l 208 243 l 174 243 l 174 833 m 208 243 l 313 243 l 313 833 l 208 833 l 208 243 m 174 139 l 208 139 l 208 174 l 313 174 l 313 139 l 347 139 l 347 35 l 313 35 l 313 0 l 208 0 l 208 35 l 174 35 l 174 139 m 243 799 l 278 799 l 278 278 l 243 278 l 243 799 m 208 35 l 313 35 l 313 139 l 208 139 l 208 35 m 243 104 l 278 104 l 278 69 l 243 69 l 243 104 z "},"\"":{"ha":590,"x_min":35,"x_max":486,"o":"m 35 833 l 69 833 l 69 868 l 174 868 l 174 833 l 208 833 l 208 625 l 174 625 l 174 590 l 69 590 l 69 625 l 35 625 l 35 833 m 313 833 l 347 833 l 347 868 l 451 868 l 451 833 l 486 833 l 486 625 l 451 625 l 451 590 l 347 590 l 347 625 l 313 625 l 313 833 m 69 625 l 174 625 l 174 833 l 69 833 l 69 625 m 451 833 l 347 833 l 347 625 l 451 625 l 451 833 m 104 799 l 139 799 l 139 660 l 104 660 l 104 799 m 382 799 l 417 799 l 417 660 l 382 660 l 382 799 z "},"#":{"ha":590,"x_min":0,"x_max":521,"o":"m 0 729 l 35 729 l 35 833 l 69 833 l 69 868 l 174 868 l 174 833 l 208 833 l 208 764 l 313 764 l 313 833 l 347 833 l 347 868 l 451 868 l 451 833 l 486 833 l 486 729 l 521 729 l 521 625 l 486 625 l 486 243 l 521 243 l 521 139 l 486 139 l 486 35 l 451 35 l 451 0 l 347 0 l 347 35 l 313 35 l 313 104 l 208 104 l 208 35 l 174 35 l 174 0 l 69 0 l 69 35 l 35 35 l 35 139 l 0 139 l 0 243 l 35 243 l 35 625 l 0 625 l 0 729 m 451 833 l 347 833 l 347 729 l 174 729 l 174 833 l 69 833 l 69 729 l 35 729 l 35 625 l 69 625 l 69 243 l 35 243 l 35 139 l 69 139 l 69 35 l 174 35 l 174 139 l 347 139 l 347 35 l 451 35 l 451 139 l 486 139 l 486 243 l 451 243 l 451 625 l 486 625 l 486 729 l 451 729 l 451 833 m 69 694 l 104 694 l 104 799 l 139 799 l 139 694 l 382 694 l 382 799 l 417 799 l 417 694 l 451 694 l 451 660 l 417 660 l 417 208 l 451 208 l 451 174 l 417 174 l 417 69 l 382 69 l 382 174 l 139 174 l 139 69 l 104 69 l 104 174 l 69 174 l 69 208 l 104 208 l 104 660 l 69 660 l 69 694 m 139 208 l 382 208 l 382 660 l 139 660 l 139 208 m 174 625 l 347 625 l 347 243 l 174 243 l 174 625 m 313 590 l 208 590 l 208 278 l 313 278 l 313 590 z "},"$":{"ha":590,"x_min":0,"x_max":521,"o":"m 0 799 l 35 799 l 35 833 l 69 833 l 69 868 l 174 868 l 174 903 l 208 903 l 208 938 l 313 938 l 313 903 l 347 903 l 347 868 l 486 868 l 486 833 l 521 833 l 521 729 l 486 729 l 486 694 l 174 694 l 174 521 l 451 521 l 451 486 l 486 486 l 486 451 l 521 451 l 521 69 l 486 69 l 486 35 l 451 35 l 451 0 l 347 0 l 347 -35 l 313 -35 l 313 -69 l 208 -69 l 208 -35 l 174 -35 l 174 0 l 35 0 l 35 35 l 0 35 l 0 139 l 35 139 l 35 174 l 347 174 l 347 347 l 69 347 l 69 382 l 35 382 l 35 417 l 0 417 l 0 799 m 313 903 l 208 903 l 208 833 l 69 833 l 69 799 l 35 799 l 35 417 l 69 417 l 69 382 l 382 382 l 382 139 l 35 139 l 35 35 l 208 35 l 208 -35 l 313 -35 l 313 35 l 451 35 l 451 69 l 486 69 l 486 451 l 451 451 l 451 486 l 139 486 l 139 729 l 486 729 l 486 833 l 313 833 l 313 903 m 69 764 l 104 764 l 104 799 l 243 799 l 243 868 l 278 868 l 278 799 l 451 799 l 451 764 l 104 764 l 104 451 l 417 451 l 417 417 l 451 417 l 451 104 l 417 104 l 417 69 l 278 69 l 278 0 l 243 0 l 243 69 l 69 69 l 69 104 l 417 104 l 417 417 l 104 417 l 104 451 l 69 451 l 69 764 z "}}}
